/* XPM */
static char *result[] = {
/* columns rows colors chars-per-pixel */
"32 32 174 2 ",
"   c #301A09",
".  c #231C15",
"X  c #28250C",
"o  c #353219",
"O  c #32312E",
"+  c #450100",
"@  c #6F0000",
"#  c #750100",
"$  c #7F0000",
"%  c #781405",
"&  c #741716",
"*  c #5C2E00",
"=  c #77270F",
"-  c #483736",
";  c #4A3936",
":  c #4D3B39",
">  c #533F3D",
",  c #6E312F",
"<  c #4E431E",
"1  c #7D691E",
"2  c #534721",
"3  c #544922",
"4  c #564B2A",
"5  c #514D2C",
"6  c #5D4A29",
"7  c #404036",
"8  c #584F36",
"9  c #54423D",
"0  c #5B4D3E",
"q  c #685B25",
"w  c #62532D",
"e  c #6C5D32",
"r  c #715734",
"t  c #796F2E",
"y  c #676431",
"u  c #6B6633",
"i  c #65613B",
"p  c #77653F",
"a  c #726E3D",
"s  c #7A743C",
"d  c #7D793B",
"f  c #4E4E4B",
"g  c #544645",
"h  c #594644",
"j  c #565659",
"k  c #65554B",
"l  c #735746",
"z  c #7A504E",
"x  c #6C5351",
"c  c #705654",
"v  c #775D52",
"b  c #755B59",
"n  c #756340",
"m  c #78694D",
"M  c #787445",
"N  c #7D7A45",
"B  c #7F7D50",
"V  c #686364",
"C  c #6C6C6C",
"Z  c #7C6460",
"A  c #73736E",
"S  c #7F7D6A",
"D  c #6F6F70",
"F  c #717071",
"G  c #767678",
"H  c #7A7A7A",
"J  c #920809",
"K  c #A70000",
"L  c #AD0000",
"P  c #BA0809",
"I  c #A41110",
"U  c #A71D1C",
"Y  c #A92B29",
"T  c #F62324",
"R  c #FF2627",
"E  c #F22F30",
"W  c #964F00",
"Q  c #827E2E",
"!  c #827D34",
"~  c #827E3A",
"^  c #855B46",
"/  c #8A5E4A",
"(  c #8E5250",
")  c #8F634D",
"_  c #986D4D",
"`  c #827E44",
"'  c #837F4A",
"]  c #886556",
"[  c #A97142",
"{  c #A97B56",
"}  c #A57C5C",
"|  c #8E7566",
" . c #8C736F",
".. c #93706B",
"X. c #8F7772",
"o. c #957D78",
"O. c #A3706C",
"+. c #BD961D",
"@. c #898636",
"#. c #86823C",
"$. c #89853E",
"%. c #918D36",
"&. c #989432",
"*. c #96913A",
"=. c #CDA400",
"-. c #F1CA06",
";. c #FFDB00",
":. c #FFFA00",
">. c #F0CC3C",
",. c #858144",
"<. c #8A8642",
"1. c #8D8944",
"2. c #85824C",
"3. c #89854C",
"4. c #8E8B4B",
"5. c #918D46",
"6. c #918D4C",
"7. c #939046",
"8. c #95914D",
"9. c #868256",
"0. c #8F8C53",
"q. c #928E53",
"w. c #928E5F",
"e. c #959254",
"r. c #989556",
"t. c #95925B",
"y. c #99955C",
"u. c #9B985E",
"i. c #9A9662",
"p. c #989467",
"a. c #9D9A65",
"s. c #9E9B69",
"d. c #98817A",
"f. c #AE8660",
"g. c #A19C6D",
"h. c #A08377",
"j. c #A38B7C",
"k. c #A39F72",
"l. c #CD8A6A",
"z. c #D7906E",
"x. c #DB9976",
"c. c #E7C265",
"v. c #1C598A",
"b. c #2873A6",
"n. c #6B8DAF",
"m. c #2D86C0",
"M. c #288DCB",
"N. c #838182",
"B. c #9D8681",
"V. c #91918C",
"C. c #929293",
"Z. c #B29B94",
"A. c #B89D92",
"S. c #B7A099",
"D. c #B0B0B4",
"F. c #B7B7BB",
"G. c #E4B58D",
"H. c #EBB98F",
"J. c #EEBE93",
"K. c #F0C397",
"L. c #F3D5A6",
"P. c #F4D7A9",
"I. c #F9DBAC",
"U. c #FFE1AF",
"Y. c #FBE0B6",
"T. c #BCBCC0",
"R. c #CECED2",
"E. c #CCD1DB",
"W. c #D5D5D9",
"Q. c #DCDAD9",
"!. c #DEDEE2",
"~. c #F4F0EB",
"^. c #FBF9F8",
"/. c #FDFDFD",
/* pixels */
"a.e.<.$.1.5.8.3.y . h X.x : : > b  .x : : : : : 8 ~ <.e.g.g.6.q.",
"t.4.#.<.<.d 9 : : ; : h X. .b X. .x k Z.X.X.x - X #.<.q.g.g.p.4.",
"t.a.i.t.8.s . 9 b o.Z.c b X.o.Z.b o.Z.X.x x : - ; u 4.q.t.t.q.4.",
"s.k.k.s.0.5 : ; > b o.Z.X.o.Z.X.X.X.X.X.X.X.X.X.c 0 q.6.1.#.#.6.",
"s.g.g.i.i g b X.X.X.X.X.X.X.X.X.X.X.o.Z.X. .x - - o t.6.<.~ ~ 6.",
"4.r.y.M 9 b  .b o.Z.X.X.o.Z.X. .X. .b o.Z.X.X.X.x ; a #.~ ~ ! ~ ",
"s N 3.0 : ; h o.Z.X..., o.S.Z.b o.Z. .b X.x b X. .x ; #.$.~ d s ",
"5.8.r.M . h  .Z A. .z U b o.Z.b o.Z...U b  .$ I h  .c ` 5.#.#.$.",
"5.6.u.w.k x x h X. .J T Y X...Y X.X.O.T U z P T % - - y 1.7.1.<.",
"<.1.a.p.v x 7 6 b ..P R E b O.E b X.( T K # $ K & x - e <.1.e.e.",
"y.8.a.p.t.a X r G.] K.U.U.L.| L.c c c b  .c ( T U c c M 1.e.a.a.",
"r.5.q.9.2.#.q p K.K.L.2 3 m U.P. .c x b X.X.( T L U x M 7.8.i.u.",
"1.$.1.' #.&.t p K.U.Y.R.x Q.U.P.X.h.K.P.X.X...R T I 9 a 1.7.8.8.",
"1.*.%.#.@.&.Q p K.U.P.N.V ~.U.P.h.G.f.P.X.X.O.R T I ; a <.1.7.1.",
"*.*.$.@.%.&.Q r x.U.L.* A ^.U.P.j.L.{ G.b X.O.R T I - M <.#.#.#.",
"1.1.5.5.*.%.Q e f.K.L.W [ U.U.P.h.H.l.6 b X.( R T I - N 3.#.#.#.",
"7.7.r.e.8.7.8.a r x.K.U.U.U.I.I.J.z.l.c c c z P T K @ 9.3.#.#.<.",
"1.8.u.a.8.e.i.i.8 6 { z.x.J.K.J.z.l._ x > x , P T K @ 0.<.4.e.r.",
"r.<.a.t.e.s.k.k.' . 2 2 2 2 3 3 8 G F g F ; + P T # = 0.a.s.s.s.",
"u.<.r.4.u.s.k.k.p.O N.T.Q.!././././.W.F.D.F   % # = 1.a.k.s.s.s.",
"4.#.1.7.8.r.u.t.q.t =.c./././.W.F.T.W.F.F.D.A #.1.$.1.y.i.i.t.e.",
"#.#.#.$.<.1.$.$.4.4 1 >.n./.E.m.f H C.G n.D.A 4 $.4.4.6.t.4.1.<.",
"$.1.<.$.#.#.3.y.i.i n >.b.M.M.m.k A.A.d.d.W.D.A 8.4.r.r.u.e.1.#.",
"r.u.4.$.<.e.4.1.4.M f N./ / / ^ 6 ) } ) V.^.R.A ,.4.7.7.r.e.$.<.",
",.1.<.$.<.8.1.<.1.' f j v.b.M.m.w } } ] C.^.W.D.S r.<.5.y.6.1.1.",
"e.4.$.4.u.u.e.1.q.q.~ +.j C C V w } } v C./.W.D.A 4.r.1.4.s.y.t.",
"s.a.e.<.e.r.e.e.t.i.9.q =.;.:.:.-.2 2 8 C./.W.D.D 1.8.8.r.u.q.a.",
"k.k.a.8.<.1.e.e.r.t.i.w 4 k A.Z.B.d.< O C.^.W.D.A 1.1.6.$.3.s.k.",
"k.k.t.a.e.$.#.5.<.6.q.` o 4 ) } / l 2 B V.^.D.A d e.1.4.1.4.s.k.",
"s.e.u.u.8.8.<.1.6.1.<.~ d e f.} / l w 1.B H A N #.,.e.3.1.4.q.y.",
"4.q.1.$.1.<.1.6.1.` ` ` 2.3.u 3 < 3 d 8.u.t.t.1.<.<.8.4.1.#.$.<.",
"a.t.$.$.1.1.6.8.<.<.4.q.t.t.q.<.#.1.<.8.8.8.1.~ #.#.<.4.4.3.1.6."
};
