/* XPM */
static char *result[] = {
/* columns rows colors chars-per-pixel */
"32 32 149 2 ",
"   c #050501",
".  c #0D0C03",
"X  c #191608",
"o  c #26240F",
"O  c #2C2819",
"+  c #332F18",
"@  c #262620",
"#  c #392C2F",
"$  c #3F3D20",
"%  c #760000",
"&  c #790100",
"*  c #780F07",
"=  c #771817",
"-  c #5C2E00",
";  c #413D1A",
":  c #4C3A37",
">  c #4E3C3A",
",  c #543937",
"<  c #503D3B",
"1  c #524621",
"2  c #564A23",
"3  c #594B23",
"4  c #574B2B",
"5  c #5C552A",
"6  c #5A582A",
"7  c #514D34",
"8  c #52423D",
"9  c #534B3B",
"0  c #5B4C3C",
"q  c #545230",
"w  c #674B29",
"e  c #635626",
"r  c #675C33",
"t  c #675B3C",
"y  c #716A30",
"u  c #716D39",
"i  c #757334",
"p  c #7A753C",
"a  c #7D793B",
"s  c #463E40",
"d  c #444443",
"f  c #4F4F43",
"g  c #434A52",
"h  c #555556",
"j  c #675947",
"k  c #79594A",
"l  c #6F5553",
"z  c #715553",
"x  c #7D5452",
"c  c #725856",
"v  c #785A56",
"b  c #755C59",
"n  c #7B5F59",
"m  c #6C6542",
"M  c #766B47",
"N  c #727040",
"B  c #7A7743",
"V  c #7E7B43",
"C  c #7D645C",
"Z  c #6D6D6E",
"A  c #77776F",
"S  c #7C7B6E",
"D  c #767575",
"F  c #767678",
"G  c #787778",
"H  c #7A7A7D",
"J  c #820303",
"K  c #AB0101",
"L  c #AB0F0E",
"P  c #B20303",
"I  c #AC1817",
"U  c #FD2526",
"Y  c #FB2C2D",
"T  c #964F00",
"R  c #9E5E29",
"E  c #807B36",
"W  c #827E3A",
"Q  c #8A5E49",
"!  c #8D604C",
"~  c #9B6F4A",
"^  c #827F42",
"/  c #A1724E",
"(  c #A37854",
")  c #A67D5C",
"_  c #8E746F",
"`  c #91746F",
"'  c #8F7772",
"]  c #937C75",
"[  c #86823C",
"{  c #89853E",
"}  c #908C3A",
"|  c #97913B",
" . c #C49B02",
".. c #E2B600",
"X. c #FCD301",
"o. c #FAD20A",
"O. c #FFFB00",
"+. c #868242",
"@. c #8A8642",
"#. c #8D8944",
"$. c #84804B",
"%. c #8A854B",
"&. c #8E8A4B",
"*. c #918D46",
"=. c #918D4B",
"-. c #939046",
";. c #95914C",
":. c #898656",
">. c #8F8B52",
",. c #928E53",
"<. c #918E58",
"1. c #959254",
"2. c #989556",
"3. c #96925B",
"4. c #99965C",
"5. c #9B985E",
"6. c #9A9662",
"7. c #9D9A65",
"8. c #9E9B69",
"9. c #A09C6C",
"0. c #A39F72",
"q. c #D48E6C",
"w. c #D7906E",
"e. c #D89370",
"r. c #205584",
"t. c #286D9E",
"y. c #4B769B",
"u. c #7E7E80",
"i. c #288DCA",
"p. c #4392CC",
"a. c #838385",
"s. c #9F8781",
"d. c #9A908E",
"f. c #969698",
"g. c #B59A8F",
"h. c #B59E97",
"j. c #B89D92",
"k. c #B6B6BA",
"l. c #B9B9BD",
"z. c #EBBB91",
"x. c #EFC095",
"c. c #FDDEAD",
"v. c #FFE1AF",
"b. c #FEE2B3",
"n. c gray83",
"m. c #D6D6DA",
"M. c #DBDBDE",
"N. c gray93",
"B. c #FCFCFC",
/* pixels */
"7.1.@.{ #.-.=.m s , < > < z ' z > > > c ' : X y W W @.,.9.9.=.<.",
"3.&.[ @.@.{ [ O , x ] ] h.< c ' ' c ' ' > > : : < 9 @.1.9.9.6.&.",
"3.7.6.3.=.*.u > s s c c ' h.' b h.' ' z b h.` z :   %.=.3.3.<.#.",
"8.0.0.8.4.>.0 c ' ' ' ' ' ' ' ' ] h.' ' h.' z s : > q =.@.+.[ =.",
"9.9.9.9.4.<.+ > s c ' ' h.' ' ' ' ' ' ' ' ' ' ' ' l : u { W W =.",
"&.2.2.<.<.u < c ' ' ] h.' c ' ' ' ] h.' ' ] h.' c _ l > E W E W ",
"p V %.<.%.8 c ' ' c c ' c ] h.' b h.h.` = ' ' h._ > , > t W E p ",
"*.;.2.1.%.c ' , K = _ z I ] h.' b h.' c L c ] h.c _ : . *.[ W #.",
"*.=.5.9.m < , J U L z P Y ' ' _ I ' ` P U = ' _ > l l j #.*.#.@.",
"@.@.7.9.7 < l & K % & P U z ' x Y ' x U U I _ l 1 8 l u { *.1.1.",
"4.1.6.6.j z z P Y z c ` z z l _ c.C b.v.c.z.n z.1 X m #.#.1.7.7.",
"1.#.,.:.0 z P P Y c ' ' l l l ] c.c.1 1 r c.z.z.1 6 1.*.-.;.6.5.",
"#.{ #.^ 0 , P U Y ' ' ] v.z.' ] v.b.n.> M.c.c.z.1 +.#.{ #.*.;.;.",
"*.| } E 0 , P U Y ' ] ] c.( z.] v.b.N.# d.v.c.z.1 +.^ @.#.#.*.#.",
"} | { } + , P U Y ' ' n z.( c.8.b.b.B.- w b.v.q.1 a %.>.+.[ { [ ",
"*.#.*.*.; , P U Y c ' l 3 e.z.] v.c.c.T R c.z.~ 5 &.3.3.&.[ [ { ",
"-.-.1.1.3 & P U L z z z v w.e.x.v.b.v.v.c.z.q.1 B &.6.3.%.W [ @.",
"#.;.5.7.p & P U K < z , c / w.e.z.z.z.w.q.~ 1 5 W &.3.>.+.&.1.2.",
"1.@.8.3.%.& J U K @ d G 8 F F 1 1 1 1 1 1 1   @.[ +.&.1.8.8.8.8.",
"5.#.2.&.3.M % % * @ H k.l.M.B.B.B.B.M.m.k.D o +.W [ #.7.0.8.9.8.",
"=.[ #.*.;.1.5.1.m H k.k.l.m.k.l.M.B.B.B... .y [ #.#.#.3.6.5.3.1.",
"[ [ { [ @.#.@.a F H k.G G f.F g p.M.B.y.X.1 6 =.{ #.&.;.3.&.@.@.",
"@.#.@.@.{ { +.S H k.m.F s.j.j.9 i.i.i.y.o.d $.5.;.&.3.2.4.1.*.[ ",
"1.4.=.{ @.,.N G u.M.B.D Q ) Q 3 ! ! Q ! a.d 6.6.1.#.-.-.2.1.{ @.",
"@.#.@.[ #.&.A H l.M.B.D Q ) ) 9 i.i.t.r.h f 6.6.5.1.#.&.2.>.#.#.",
"1.&.@.*.5.<.G H l.M.B.D k ) ( , A Z Z h  .p 1.*.4.&.1.*.=.8.4.3.",
"8.7.1.@.1.&.G H l.M.B.D 2 2 e X.O.O.X. .3 -.*.*.1.#.-.;.1.4.,.7.",
"0.0.7.&.@.#.S H l.m.B.D X 4 0.s.j.g.1 1 y #.1.3.1.&.#.*.@.&.8.0.",
"0.0.3.6.1.{ i G H l.B.A W 2 k ! ) Q 1 $ #.;.1.1.@.1.#.=.&.&.7.0.",
"8.1.5.5.1.;.{ +.S F D i a 5 k ! ) ) r @.5.2.4.,.[ +.1.%.@.&.1.4.",
"&.=.{ #.@.@.#.*.@.+.+.^ $.B 2 2 3 y { ;.5.4.2.#.+.@.=.&.&.[ [ @.",
"7.3.#.{ #.*.=.1.@.%.&.:.3.6.>.{ { @.@.;.;.&.&.[ [ [ { &.&.#.&.=."
};
