/* XPM */
static char *result[] = {
/* columns rows colors chars-per-pixel */
"32 32 158 2 ",
"   c #151405",
".  c #1B1A08",
"X  c #29270E",
"o  c #292817",
"O  c #312F15",
"+  c #30261F",
"@  c #3C3616",
"#  c #2D2320",
"$  c #2E2E2B",
"%  c #312721",
"&  c #342A22",
"*  c #3A3A3A",
"=  c #760000",
"-  c #483E1C",
";  c #41322F",
":  c #433430",
">  c #4A3C32",
",  c #4D3C39",
"<  c #742E2C",
"1  c #4D4B26",
"2  c #48462F",
"3  c #564E26",
"4  c #5B5527",
"5  c #5E5B29",
"6  c #4E4133",
"7  c #46463B",
"8  c #534933",
"9  c #594D35",
"0  c #52413A",
"q  c #554C3A",
"w  c #595233",
"e  c #625B27",
"r  c #62592B",
"t  c #6A5333",
"y  c #665D31",
"u  c #695F34",
"i  c #625A3D",
"p  c #65612F",
"a  c #6B652D",
"s  c #676436",
"d  c #6A6533",
"f  c #6F6B38",
"g  c #716B3C",
"h  c #7A7637",
"j  c #79763B",
"k  c #3F3F40",
"l  c #474241",
"z  c #4D4C45",
"x  c #594442",
"c  c #5E4B44",
"v  c #565657",
"b  c #5B5252",
"n  c #575758",
"m  c #674F4D",
"M  c #724947",
"N  c #655446",
"B  c #67514F",
"V  c #68514E",
"C  c #7E5941",
"Z  c #705654",
"A  c #696642",
"S  c #646249",
"D  c #706D46",
"F  c #706C4D",
"G  c #747245",
"H  c #7D7A46",
"J  c #767148",
"K  c #7D7B4A",
"L  c #7A615E",
"P  c #7B795A",
"I  c gray40",
"U  c #696965",
"Y  c #6B6A6C",
"T  c #7D706D",
"R  c #777776",
"E  c #797273",
"W  c #7A7A71",
"Q  c #767678",
"!  c #890000",
"~  c #A00000",
"^  c #AD0000",
"/  c #AD1112",
"(  c #9E2E2C",
")  c #9E3634",
"_  c #C91112",
"`  c #E21F20",
"'  c #EB1F20",
"]  c #DE2D2D",
"[  c #FF2627",
"{  c #E23938",
"}  c #A5413E",
"|  c #807B36",
" . c #827E3A",
".. c #854947",
"X. c #AA4C4A",
"o. c #85665A",
"O. c #886561",
"+. c #806A65",
"@. c #876F6A",
"#. c #8A726E",
"$. c #8E796F",
"%. c #8F7772",
"&. c #847B7B",
"*. c #E64947",
"=. c #ED6C6F",
"-. c #86823C",
";. c #89853E",
":. c #918D37",
">. c #96913A",
",. c #878245",
"<. c #8A8642",
"1. c #8D8944",
"2. c #86834F",
"3. c #89854B",
"4. c #8E8A4B",
"5. c #918D46",
"6. c #918D4C",
"7. c #939046",
"8. c #95914D",
"9. c #8F8B53",
"0. c #928E52",
"q. c #959254",
"w. c #999556",
"e. c #96925B",
"r. c #99955C",
"t. c #9B985E",
"y. c #9A9762",
"u. c #9D9A65",
"i. c #9E9B69",
"p. c #9C857F",
"a. c #A09C6C",
"s. c #A39F72",
"d. c #868687",
"f. c #8E8E8D",
"g. c #8D8D90",
"h. c #9B9B9E",
"j. c #A18C86",
"k. c #A69089",
"l. c #AD968F",
"z. c #B7A099",
"x. c #A3A2A4",
"c. c #A7A7AB",
"v. c #A8A8AB",
"b. c #AFAFB2",
"n. c #B7B7BB",
"m. c #F58082",
"M. c #FF9696",
"N. c #CF9EA2",
"B. c #E5BBBF",
"V. c #C2C2C6",
"C. c #CFCFD2",
"Z. c #D0D0D4",
"A. c #D9D9DD",
"S. c #FFDCDC",
"D. c #E5E5E8",
"F. c #EDEDEE",
"G. c #F5F5F6",
"H. c white",
/* pixels */
"u.q.<.;.1.7.,.N , , , , x Z j.j., , x Z +.: X h |  .<.0.a.a.0.0.",
"e.4.-.<.<.;.5 + , x O.%.+.c L j.j.#.l.#.m , , , , 9 ;.e.a.a.y.3.",
"e.u.y.e.8.f 0 , 0 L %.p.l.%.@.Z %.%.#.m x L @.m ; . 4.6.e.e.0.3.",
"i.s.s.i.J c L $.$.T x L j.l.%.%.%.#.j.z.l.@.m , , : u 4.<.;.;.6.",
"i.a.a.u.D & , x L %.%.%.%.%.%.@.Z Z %.%.j.l.%.%.@.m > j <. . .6.",
"4.w.r.2.8 0 L %.@.L %.%.p.l.%.%.%.#.o.%.%.%.%.@.m c m >  .| |  .",
"j H 3.i x L %.#.#.l.%.p.z.l.%.p.l.%.p.l.%.%.%.l.@.m , , u  .| h ",
"5.8.w.N L +.x #.l.@.L p.l.%.%.p.z.l.Z j.l.%.%.j.l.+.: O 6.-. .1.",
"5.8.t.q , x Z L %.@.L %.%.@.L p.l.@.L p.k.L @.L %.@.V 6 5.5.1.<.",
"<.1.y.A # B #.L @.Z L %.@.Z Z L %.@.L %.@.L %.@.Z %.+.: r 4.q.q.",
"t.q.y.F V @.Z Z M < L @.M ! ^ } %.O.< L @.L %.O.< Z Z @.9 q.u.u.",
"q.1.q.w x m x M = < Z M ! ~ / *.@.M = < M < L O.< Z , 0 > 8.y.t.",
"1.;.1.w , , x Z M = < .._ ` / { ..~ ! ~ = = < Z Z m ; & 9 7.8.8.",
"1.>.:.p > + x Z Z Z M ! ^ ^ ~ ! ~ ! ^ ^ ~ < Z Z Z m > j <.1.5.1.",
"5.>.;.;.:.e 0 Z m x Z Z .._ ' ( .._ ' ( Z Z m x Z m > 0.,.-.;.-.",
"1.1.7.>.>.a c m , x Z Z .._ [ { X.[ ' ( Z Z m , x m q e.4.-.-.-.",
"7.7.w.q.q.5 % , l x Z Z .._ [ { X.[ ' ( Z Z m , l : o y.,.h ;.<.",
"1.8.r.u.q.s $ v Q Y x m ) [ [ ] ) [ [ ] x B b Q Y * X 9.,.9.q.w.",
"q.<.u.e.q.F Y x.c.f.x.E N.[ [ =.N.[ [ =.x.E v.g.b.d.7 q.u.i.i.i.",
"t.<.q.4.t.S n Q g.V.Z.n.N.[ [ m.B.[ [ =.n.V.Z.c.Q Y 7 u.s.i.a.i.",
"8.-.1.4.,.2 * n g.V.C.V.B.[ [ M.S.[ m.A.Z.V.Z.c.Y k $ K t.y.e.q.",
"-.-.-.-.f @ F %.g.V.C.V.D.S.[ M.S.[ M.G.Z.V.Z.c.&.$.- 1 e.4.1.;.",
";.1.1.;.a t o.g.V.D.G.D.H.H.H.H.H.H.H.H.G.D.G.Z.v.T C y r.q.5.-.",
"q.t.6.;.d t o.g.V.D.H.H.H.H.H.H.H.H.H.H.H.H.G.Z.v.T C 5 w.q.;.<.",
"1.1.;.;.d t o.f.C.H.G.D.H.H.H.H.H.H.H.H.G.D.H.F.v.T C r r.6.1.1.",
"q.1.;.8.G z g.V.D.G.C.C.H.H.H.H.H.H.H.H.F.V.D.G.Z.v.I 4 4.i.r.e.",
"i.u.q.<.2.S f.V.D.G.Z.V.D.H.H.H.H.H.H.G.C.V.D.G.Z.c.U 6.q.t.0.u.",
"s.s.u.9.;.H f.V.A.Z.n.V.D.H.H.H.H.H.H.G.C.n.V.A.Z.c.K 6.,.4.i.s.",
"s.s.e.u.q.;.j W f.n.b.h.A.D.H.H.H.H.G.A.V.g.n.v.R P 4.4.1.4.u.s.",
"a.0.t.t.8.8.;.,.G P R R g.n.n.n.n.n.n.c.Q Q Q T h ,.q.<.<.6.0.t.",
"6.6.<.;.<.;.<.6.1.o. .f d y 3     @ 4 p g K w.1.;.<.8.4.1.-.;.<.",
"u.e.1.;.1.1.8.q.1.,.2.9.e.y.0.;.-.5.;.8.8.6.1.-.-.-.,.4.4.4.1.6."
};
