/* XPM */
static char *result[] = {
/* columns rows colors chars-per-pixel */
"32 32 186 2 ",
"   c #070602",
".  c #100F03",
"X  c #1B1A08",
"o  c #2E1707",
"O  c #231C16",
"+  c #26210D",
"@  c #3A371E",
"#  c #3D3B24",
"$  c #35342A",
"%  c #6F0000",
"&  c #760000",
"*  c #7F0000",
"=  c #771B0A",
"-  c #741716",
";  c #5C2E00",
":  c #423D1F",
">  c #792613",
",  c #413F26",
"<  c #4A3936",
"1  c #4D3B39",
"2  c #533F3D",
"3  c #6E312F",
"4  c #7D691E",
"5  c #464226",
"6  c #534721",
"7  c #574C24",
"8  c #544A2C",
"9  c #5D4A29",
"0  c #5C5428",
"q  c #494533",
"w  c #584F36",
"e  c #54433C",
"r  c #56483A",
"t  c #545231",
"y  c #614F29",
"u  c #63582D",
"i  c #665D32",
"p  c #655B3C",
"a  c #725733",
"s  c #67632E",
"d  c #75672E",
"f  c #797528",
"g  c #6C663A",
"h  c #74663C",
"j  c #74713B",
"k  c #7D7938",
"l  c #7E7A3B",
"z  c gray28",
"x  c #544645",
"c  c #594644",
"v  c #5A5859",
"b  c #6B5F44",
"n  c #66564D",
"m  c #735646",
"M  c #7A504E",
"N  c #6C5351",
"B  c #705654",
"V  c #755B59",
"C  c #676242",
"Z  c #776240",
"A  c #766949",
"S  c #7B7745",
"D  c #7E7C5C",
"F  c #525A64",
"G  c #696363",
"H  c #6D6D6D",
"J  c #7C6460",
"K  c #7C7B64",
"L  c #71716E",
"P  c #6F6F70",
"I  c #737273",
"U  c #767678",
"Y  c #920809",
"T  c #A60000",
"R  c #AD0000",
"E  c #BA0809",
"W  c #A41110",
"Q  c #A71D1C",
"!  c #A92B29",
"~  c #F62324",
"^  c #FF2627",
"/  c #F1292A",
"(  c #F22F30",
")  c #964F00",
"_  c #80793B",
"`  c #827E39",
"'  c #855B46",
"]  c #8B5E4A",
"[  c #8E5250",
"{  c #8F634D",
"}  c #986D4D",
"|  c #807D41",
" . c #837F48",
".. c #896759",
"X. c #807E5C",
"o. c #A97142",
"O. c #A67551",
"+. c #A67D5C",
"@. c #826D65",
"#. c #8E7566",
"$. c #8C736F",
"%. c #93706B",
"&. c #8F7772",
"*. c #957D78",
"=. c #A27D61",
"-. c #A3706C",
";. c #BD9506",
":. c #8A8734",
">. c #86823C",
",. c #89853E",
"<. c #928E37",
"1. c #96913A",
"2. c #C79D00",
"3. c #FDD400",
"4. c #FFFB00",
"5. c #F2CC27",
"6. c #F0CC3C",
"7. c #868244",
"8. c #8A8642",
"9. c #8D8944",
"0. c #86834E",
"q. c #89854C",
"w. c #8E8A4B",
"e. c #918D46",
"r. c #918D4B",
"t. c #939046",
"y. c #95914D",
"u. c #868356",
"i. c #8D8A53",
"p. c #928E52",
"a. c #928E5C",
"s. c #959254",
"d. c #989456",
"f. c #95925B",
"g. c #99965C",
"h. c #9B985E",
"j. c #9B9761",
"k. c #9D9A65",
"l. c #9E9B69",
"z. c #AE8660",
"x. c #A19C6D",
"c. c #A08377",
"v. c #A38B7C",
"b. c #A39F72",
"n. c #CD8A6A",
"m. c #D18C6A",
"M. c #D7906E",
"N. c #DB9976",
"B. c #E7C265",
"V. c #306A96",
"C. c #2873A6",
"Z. c #6B8DAF",
"A. c #2A89C4",
"S. c #288DCB",
"D. c #828183",
"F. c #8A8284",
"G. c #88888B",
"H. c #929294",
"J. c #B1998F",
"K. c #B29B94",
"L. c #B7A099",
"P. c #A2A2A4",
"I. c #B1B1B5",
"U. c #B7B7BB",
"Y. c #C3AD89",
"T. c #E4B58D",
"R. c #EBB98F",
"E. c #EEBE93",
"W. c #F0C397",
"Q. c #F3D5A6",
"!. c #F4D7A9",
"~. c #F9DBAC",
"^. c #FFE1AF",
"/. c #FBE0B6",
"(. c #BCBCC0",
"). c #C2C2C6",
"_. c #CECED2",
"`. c #CCD1DB",
"'. c #D5D3D3",
"]. c #D5D5D9",
"[. c #D9D9DD",
"{. c #DEDEE2",
"}. c #F4F0EB",
"|. c #FFFBF7",
" X c #F7F7F8",
".X c #FDFDFD",
/* pixels */
"k.s.8.,.9.t.y.8.S g b b , , 8 p p g h 0 0 k S >.` ` 8.p.l.x.i.s.",
"f.w.>.8.8.8.8.s O c &.N 1 1 2 V &.N 1 1 1 1 1 r k >.8.f.x.x.j.w.",
"f.k.j.f.7.e 1 1 1 1 c &.$.V &.$.N n K.&.$.N < X ` 8.w.r.f.f.p.9.",
"l.b.b.l.S O 2 V *.K.N V &.*.J.V *.K.&.N N 1 1 < j p.p.r.8.7.8.w.",
"l.b.l.f.q 1 1 x V *.K.&.*.K.&.&.&.&.&.&.&.&.$.N r j.f.e.,.` ` r.",
"w.d.f.p e V &.&.&.&.&.&.&.&.&.&.&.*.K.&.$.N < < $ p.q.>.>.` _ ` ",
"k S Z x V $.V *.K.&.&.*.K.&.&.&.&.B *.K.&.&.&.N < j S >.,.` _ k ",
"9.y.w 1 1 c *.K.%.%.3 *.L.K.V *.K.&.V &.N V &.$.N r d.9.e.>.>.,.",
"e.y.S O c $.J K.$.M Q V *.K.V *.K.%.Q V $.* W c $.N 7.8.9.t.9.8.",
"8.9.j.n B N c &.#.Y ~ ! &.%.! &.&.-.~ Q M E ~ - 1 < 5 8.,.e.s.s.",
"g.s.a.A N 1 9 V %.E ^ ( V -.( V $.[ ~ T & * T - N < X 9.9.s.k.k.",
"s.9.i.D b + h T...W.^.^.!.#.Q.B B N V &.N [ ~ Q B N e 9.t.y.j.h.",
"9.,.8. .l 0 Z W.W.!.6 6 A ^.!.$.B B V &.$.[ ^ ~ Q N < 8.9.e.t.s.",
"9.1.<.>.:.f h W.^./._.v [.^.!.&.c.W.!.&.&.-.^ ^ / 1 < 7.9.9.e.9.",
"1.1.,.:.<.f h W.^.!.F.G }.^.!.c.T.z.!.&.&.%.E ^ ~ W < j 8.>.,.>.",
"9.9.t.e.1.f a N.^.Q.; @.|.^.!.v.Q.z.T.V &.%.E ~ R T % t w.>.>.,.",
"y.t.s.s.y.7.i +.W.Q.) o.^.^.!.c.R.n.9 V $.B M R R R T $ 7.>.>.8.",
"9.y.h.k.s.p.S a N.W.^.^.^.^.~.R.M.n.B N B N M R R R T = 7.w.s.d.",
"s.8.k.g.s.x.l.C y O.M.N.E.E.R.M.m.} N 2 N 2 N 3 R & & = l.l.l.l.",
"h.8.d.9.g.l.b.u.+ 6 6 6 6 6 6 w U I x I < # A o & & & > x.l.l.l.",
"r.>.e.9.y.d.g.0.q D.(.[.{..X.X.X].U.U.I.P . ,.` d = > u.j.j.f.s.",
">.>.,.>.8.9.8.k d 2.B..X.X.X[.[.].I.P.[._.U L 7.,.w.9.w.d.w.9.8.",
",.9.8.,.>.>.9.u.5 4 6.Z..X`.A.v I.H.U G.{. XI.I j w.d.d.g.d.9.,.",
"s.h.r.,.9.s.r.| 5 Z 6.C.S.S.S.V.8 G K.D.(.{. XI.L j t.t.d.s.>.8.",
"8.w.,.>.8.p.9.k # x F.] ] ] ] ] ' y +.=.Z.)..X].I.L 7.w.g.r.9.q.",
"s.9.8.r.h.h.s.| @ z F C.S.S.S.A.V.7 { +.O.H..X X'.P s 9.r.l.h.d.",
"l.k.s.8.s.d.y.0.: d 5.H P H P H P H t { { F.{..X XI.K t.d.j.i.k.",
"b.b.k.r.,.e.s.q.: p Y.4.4.4.3.3.3.2.;.6 q c.)..X XI.D w.8.9.l.b.",
"b.b.s.k.s.,.>.8.h +.+.' ] m 6 6 9 ] ' w U U H. XI.L 7.r.9.w.l.b.",
"l.p.h.h.y.y.,.9.| +.+.+.m :   + 7 0 7   $ U G._.L g s.q.8.w.s.g.",
"i.r.8.9.9.,.9.r._ u 6 6 7 g 9.8.,.` 8.y.h.i.g X.>.8.w.w.9.>.,.8.",
"k.d.8.,.9.e.r.p.8.7.w.a.a.f.p.,.,.9.9.y.p.w.9.` >.>.8.w.w.w.9.r."
};
