/* XPM */
static char *result[] = {
/* columns rows colors chars-per-pixel */
"32 32 198 2 ",
"   c #211F0C",
".  c #2A2517",
"X  c #342E13",
"o  c #363216",
"O  c gray15",
"+  c #322821",
"@  c #38352F",
"#  c #323234",
"$  c #39393A",
"%  c #5C2E00",
"&  c #473D1B",
"*  c #41322F",
"=  c #483C2C",
"-  c #453631",
";  c #4C3D33",
":  c #4D3B39",
">  c #503E3A",
",  c #4B462A",
"<  c #534721",
"1  c #554B23",
"2  c #51432A",
"3  c #585327",
"4  c #4A433A",
"5  c #564838",
"6  c #585335",
"7  c #625C2B",
"8  c #664E32",
"9  c #685833",
"0  c #715733",
"q  c #7E7B2E",
"w  c #686438",
"e  c #75673B",
"r  c #7A7639",
"t  c #3F3F40",
"y  c #2F4158",
"u  c #36475C",
"i  c #37576D",
"p  c #2D5076",
"a  c #484847",
"s  c #5A4543",
"d  c #545455",
"f  c #5D5455",
"g  c #5A5A5B",
"h  c #674F4D",
"j  c #724746",
"k  c #7F4441",
"l  c #655548",
"z  c #685248",
"x  c #7C5745",
"c  c #7D5840",
"v  c #695651",
"b  c #705654",
"n  c #696647",
"m  c #716E49",
"M  c #7A7747",
"N  c #6F6A5A",
"B  c #736254",
"V  c #7B625F",
"C  c #79775A",
"Z  c #4A5B75",
"A  c #526972",
"S  c #656563",
"D  c #6C6A66",
"F  c #6B6A6B",
"G  c #7F6964",
"H  c #767678",
"J  c #8B0000",
"K  c #9D302F",
"L  c #CC1213",
"P  c #E91E1F",
"I  c #DF3A3A",
"U  c #FF2627",
"Y  c #964F00",
"T  c #866C1A",
"R  c #807B36",
"E  c #827E3A",
"W  c #874746",
"Q  c #8A5E4A",
"!  c #805F52",
"~  c #A44441",
"^  c #8E6544",
"/  c #8D604F",
"(  c #91694F",
")  c #85794B",
"_  c #896651",
"`  c #88635F",
"'  c #956951",
"]  c #9A685E",
"[  c #957453",
"{  c #9E7558",
"}  c #A77E5D",
"|  c #B77E5C",
" . c #896C62",
".. c #866E6A",
"X. c #8D776E",
"o. c #8F7772",
"O. c #847876",
"+. c #AD890F",
"@. c #86823C",
"#. c #89853E",
"$. c #928E37",
"%. c #96913A",
"&. c #A79534",
"*. c #D6AB00",
"=. c #DBB200",
"-. c #EFC600",
";. c #FFD600",
":. c #FFEA00",
">. c #DAD825",
",. c #DDDB3A",
"<. c #858244",
"1. c #8A8642",
"2. c #8D8944",
"3. c #89854B",
"4. c #8E8A4C",
"5. c #918D45",
"6. c #918D4C",
"7. c #939046",
"8. c #95914C",
"9. c #8E8A53",
"0. c #928E53",
"q. c #959254",
"w. c #999556",
"e. c #96925B",
"r. c #99955C",
"t. c #9B985E",
"y. c #B88056",
"u. c #A6A448",
"i. c #AEAC5C",
"p. c #9A9762",
"a. c #9D9A65",
"s. c #9E9B69",
"d. c #9D877E",
"f. c #A7856C",
"g. c #BD8868",
"h. c #A5916B",
"j. c #A09C6C",
"k. c #AD8971",
"l. c #A39F72",
"z. c #AF957A",
"x. c #C48D66",
"c. c #D7A57B",
"v. c #DFA07B",
"b. c #D9C378",
"n. c #D9E178",
"m. c #29668F",
"M. c #3B6B8C",
"N. c #2879AF",
"B. c #5E7894",
"V. c #2884BE",
"C. c #4784B4",
"Z. c #288DCB",
"A. c #858486",
"S. c #8B8B8D",
"D. c #9D8680",
"F. c #9F8A84",
"G. c #8F8F92",
"H. c #86919E",
"J. c #949394",
"K. c #A78B85",
"L. c #A58E88",
"P. c #AC958E",
"I. c #B2958A",
"U. c #A39E9D",
"Y. c #A5A29B",
"T. c #B9A499",
"R. c #9E9EA1",
"E. c #9CB0B1",
"W. c #A7A7A9",
"Q. c #AFAFB2",
"!. c #B1B1B1",
"~. c #B7B7BB",
"^. c #B9B8BA",
"/. c #D1A683",
"(. c #D9AA82",
"). c #DCBF93",
"_. c #E7B189",
"`. c #EEBE93",
"'. c #DEC298",
"]. c #E9CA96",
"[. c #F4CA9D",
"{. c #EDCEAC",
"}. c #F4DABF",
"|. c #FFE1AF",
" X c #9CBBDD",
".X c #B6BBC3",
"XX c #C3C3C6",
"oX c #CBCACC",
"OX c #CFCFD3",
"+X c #DDDDDC",
"@X c #E3D7CB",
"#X c #F4E7D9",
"$X c #DDDFE2",
"%X c #D9E3F0",
"&X c #E6E6E8",
"*X c #FAEDE4",
"=X c #F4F4F5",
"-X c white",
/* pixels */
"a.q.1.#.2.7.q.2.r . * G V s : : D.D.V s : : : : > w #.q.s.s.9.q.",
"e.4.@.1.1.#.6 : : : : h ..o.V L.D.V s G o.V s : . 3 #.w.s.l.p.4.",
"e.a.p.e.8.5.  * h ..V s h L.D.o.V ..o.P.D.o.V s : : 6 ) e.e.q.3.",
"s.l.l.s.r.w - : : h ..o.o.o.P.D.o.o.P.D.V s F.D.o.G h 9 1.#.@.4.",
"s.l.j.a.) ; h ..o.o.P.T.D.o.o.o.o.o.o.o.o.P.D.V s - + 3 #.@.r 6.",
"4.w.r.9.4 z s h ..o.o.o.o.o.o.P.D.o.P.D.o.o.` ..o.G s , r q r @.",
"r M 3.n : : h ..P.D.o.o.P.D.P.T.D.k j L.D.o.o.b ..o.V s 3 @.R r ",
"5.8.w.w.o * G P.D.o.o.P.D.V L.D.V K J  .o.k K.D.G s ..b z @.@.2.",
"5.8.t.j.5 h ..o.V ..V ..O.W ! o.~ P L W ..k ` P...b s : 2 5.4.1.",
"1.2.p.m - G o.V ..o.k ` V K ] V I U U L ] k j ..V ..v + 3 4.q.q.",
"t.q.p.5 G V b ..O.G /.f.'.|.z.'.|.|.}.[.} /.k...V b ..b w q.p.s.",
"w.2.0.; : 2 z ..V /.{ < < '.|.|.|.|.h.< 2 /.v.{ | / v s 7 8.t.t.",
"1.#.2.5 + & z ..V /.@XA.~.}.|.|.|.|.@XA.^.{.v.] g.^ ; 5 r 5.6.q.",
"2.%.$.@.q = 2 z ' c.#XJ.H {.|.|.|.|./.f OX{.g.b 8 ; + m 1.2.5.2.",
"5.%.#.#.$.5 z b ( (.*XU.% ).|.|.|.|.h.% +X}.g.! b s , 3.3.@.#.@.",
"$.2.7.5.%.2 h s 2 y._.y.Y `.|.|.|.|.g.Y c.v.^ ; h s 6 e.4.@.@.@.",
"7.7.q.8.7.. * D H z | _.{.|.|.|.|.|.|.[.v.^ D H f + , p.4.E @.1.",
"2.8.t.a.8.. $ F W.~.O.R x._.`.`.].`.c.| 0 R.~.G.d O , 9.<.4.q.w.",
"e.1.a.t.q.a A.Q.~.OXXXO.< < < < < < < < R.OXXX~.R.F 5 9.s.s.s.s.",
"t.1.w.2.t.4 F .XQ.S.XX=X-X&XXXG.W.OX=X-X&XW.G.oXR.g 6 p.l.s.s.s.",
"6.@.2.7.) + t d d t p .X=X-X].*.*.#X-X&XH.t a g a $ , e.t.t.e.q.",
"@.@.#.@.3 & X.O.d $ i M.$X XZ.n.E.Z.%XE.M.y t S d.b , <.e.4.2.<.",
"#.2.1.1.7 0 } I.B @ x A m.Z.Z.b.W.Z.V.m.N 4 # D.f.' e 6.t.q.2.@.",
"q.t.4.#.7 ' } ' 5 y p b ! / O.A.A. .^ x Z u $ x { } e 1.w.q.#.1.",
"1.4.1.#.7 0 Q 8 @ a d M.N.Z.B.,.i.C.Z.N.Z s $ = c Q 0 3.w.6.1.2.",
"q.2.<.7.w , < +XY.+.) d F F ,.u.,.i.F g d &.T +XY.< 3 <.4.s.p.e.",
"s.a.q.1.4.D $X-X!.l +.-.;.:.u.4 a >.:.;.=.T D $X-X!.n 7.w.t.0.a.",
"l.l.a.6.#.N $X-X!.H v o.P.L.B < < X.I.L.b D H $X-XQ.m 5.<.2.s.l.",
"l.l.e.a.q.e N $X!.a & 0 } _ 8 o & j { ' 8 X S $X!.n <.9.2.4.s.l.",
"s.0.t.t.8.7.r C m <.3 [ } ' 8 7 < e { } e m 3.C m r q.2.1.4.q.e.",
"6.0.1.#.2.1.#.2.1.1.r 1 < < 3 1.R 1 < 1 w q.t.2.#.<.4.4.4.@.#.1.",
"a.q.2.#.2.2.8.0.1.1.3.9.e.e.0.#.#.5.#.8.8.2.2.@.@.@.#.4.4.2.2.8."
};
