/* XPM */
static char *result[] = {
/* columns rows colors chars-per-pixel */
"32 32 192 2 ",
"   c #090903",
".  c #1F1E0D",
"X  c #2B2518",
"o  c #3B3719",
"O  c #2C2723",
"+  c #3A3526",
"@  c #373738",
"#  c #5C2E00",
"$  c #463D1D",
"%  c #43392A",
"&  c #433431",
"*  c #4B3C32",
"=  c #4D3B39",
"-  c #503F3A",
";  c #4C421E",
":  c #4C4429",
">  c #534721",
",  c #51472B",
"<  c #595428",
"1  c #48433B",
"2  c #574937",
"3  c #5A5336",
"4  c #684F31",
"5  c #654A3D",
"6  c #665937",
"7  c #735937",
"8  c #6A6437",
"9  c #726B39",
"0  c #7A7637",
"q  c #2C3F57",
"w  c #3B4A5E",
"e  c #234D75",
"r  c #335173",
"t  c #444444",
"y  c #4B4B4B",
"u  c #594443",
"i  c #5C4843",
"p  c #585647",
"a  c #5F5849",
"s  c #575758",
"d  c #595758",
"f  c #674F4D",
"g  c #7E4340",
"h  c #724846",
"j  c #665643",
"k  c #68524C",
"l  c #7D5845",
"z  c #675350",
"x  c #705654",
"c  c #6C6447",
"v  c #726C48",
"b  c #7E7A43",
"n  c #7E794A",
"m  c #7A615E",
"M  c #776D5B",
"N  c #757457",
"B  c #495976",
"V  c #665761",
"C  c #636364",
"Z  c #6C6A65",
"A  c #676769",
"S  c #6C6C6D",
"D  c #776E6C",
"F  c #7C786F",
"G  c #767678",
"H  c #7E7678",
"J  c #8A0000",
"K  c #9E2F2D",
"L  c #CA1212",
"P  c #EA1F20",
"I  c #FF2627",
"U  c #E03939",
"Y  c #964F00",
"T  c #846A1A",
"R  c #807B37",
"E  c #827E3A",
"W  c #864846",
"Q  c #855C4A",
"!  c #8B5E4B",
"~  c #805F52",
"^  c #A54340",
"/  c #8A6744",
"(  c #91694E",
")  c #837946",
"_  c #85695F",
"`  c #976B57",
"'  c #987455",
"]  c #A77E5D",
"[  c #B87E5B",
"{  c #886560",
"}  c #806965",
"|  c #896C61",
" . c #876E6A",
".. c #996560",
"X. c #8C766F",
"o. c #8F7772",
"O. c #887D7A",
"+. c #AE8A0F",
"@. c #A2881A",
"#. c #8A8530",
"$. c #86823C",
"%. c #89853E",
"&. c #978A3A",
"*. c #96913A",
"=. c #AF8C2F",
"-. c #C79D00",
";. c #D6AB00",
":. c #F0C700",
">. c #FFD600",
",. c #FFEF00",
"<. c #DDDB2A",
"1. c #E0DD3D",
"2. c #868243",
"3. c #8A8642",
"4. c #8D8944",
"5. c #86834C",
"6. c #89864B",
"7. c #8E8A4B",
"8. c #918D45",
"9. c #918D4C",
"0. c #939046",
"q. c #95914D",
"w. c #8B8855",
"e. c #928E53",
"r. c #959254",
"t. c #989456",
"y. c #96925B",
"u. c #99955C",
"i. c #9B985E",
"p. c #A3A149",
"a. c #ABAA5D",
"s. c #9A9762",
"d. c #9D9A65",
"f. c #9E9B69",
"g. c #9C857F",
"h. c #A4856A",
"j. c #BB8E67",
"k. c #A09C6C",
"l. c #A39F72",
"z. c #C38466",
"x. c #CFA67E",
"c. c #DDA17B",
"v. c #DBC476",
"b. c #DBE276",
"n. c #1F5D8E",
"m. c #2B6795",
"M. c #2878AE",
"N. c #5F7892",
"B. c #2885BF",
"V. c #4684B5",
"C. c #288DCB",
"Z. c #848385",
"A. c #8F8F87",
"S. c #8E8E90",
"D. c #939290",
"F. c #A48B85",
"G. c #A68F89",
"H. c #AC958F",
"J. c #B2968A",
"K. c #A49C96",
"L. c #B9A399",
"P. c #98B0AD",
"I. c #A2A1A3",
"U. c #A7A7AA",
"Y. c #AFAFB1",
"T. c #B7B7BB",
"R. c #BABABC",
"E. c #D2A784",
"W. c #DAAB83",
"Q. c #E7B289",
"!. c #EEBE93",
"~. c #DEC296",
"^. c #E2C499",
"/. c #F1CB9A",
"(. c #EECEAC",
"). c #F4DABD",
"_. c #FFE1AF",
"`. c #98B3D0",
"'. c #BABEC8",
"]. c #C2C2C6",
"[. c #C5C5C8",
"{. c #D0CFCF",
"}. c #D0D0D4",
"|. c #DCDBDC",
" X c #E3D6CC",
".X c #E0E0DF",
"XX c #F4E8DB",
"oX c #DBE2ED",
"OX c #E4E4E6",
"+X c #FAEEE5",
"@X c #F4F4F5",
"#X c white",
/* pixels */
"d.r.3.%.4.0.r.4.2.) v c x 3 o o 3 6 8 v 8 8 8 9 0 $.3.r.f.f.e.e.",
"y.7.$.3.3.%.3.3.0 X & } m 2 = = F.F.m u = = * = , 9 %.y.f.l.d.6.",
"y.d.s.y.q.9.3 = - - = f  .o.m F.F.m u m o.x u & X < 6.e.y.y.r.6.",
"f.l.l.f.u.r.. & f  .x u f G.F.o.m  .o.H.F.o.m u = 2 6 ) 3.$.%.7.",
"f.k.f.d.u.8 & = = f  .o.o.o.G.F.o.o.H.g.m u F.F.o.x j 8 %.E E 7.",
"7.y.u.y.) * f  .o.o.H.L.A.o.o.o.o.o.o.o.o.H.g.m i = O < $.E 0 $.",
"0 n 6.7.* f u f  .o.o.o.o.o.o.H.g.o.H.g.o.o.m  .o.m i % 0 $.E 0 ",
"8.q.t.v = = f  .H.g.o.o.H.g.G.L.g.g h G.g.o.o.m  .o.m 2 3 E $.%.",
"8.q.i.f.+ & } H.g.o.o.H.F.m F.F._ K J { o.g F.F.m i } m f 0 8.3.",
"3.3.d.k.2 f | o.x o.x  .o.g { X.^ P L W  .g { H.X.x u - * $.e.r.",
"t.r.d.c * D o.x  .o.W { m K ..m U I I L ..g h  .m  .f O < r.d.d.",
"t.3.e.2 } { x  .o.m E.h.~._.J.~._._.)./.o.E.]  .m x  .z 9 q.s.i.",
"4.%.4.* = , k  .m E.' > > !._._._._.h.> > x.c...z.! f i 6 0.0.q.",
"4.*.#.3 + $ k  .m E. XZ.R. X_._._._. XZ.T.(.c.` z./ * 1 8 %.4.4.",
"8.*.%.$.#.% , k ( W.XXS.O.^._._._._.L.d {.(.j.~ 2 - + n 2.$.%.%.",
"*.3.0.0.*.% f x ( W.+XK.# ~._._._._.h.# |.).j.~ x i j y.7.$.$.$.",
"0.0.t.q.q.1 z u , [ Q.[ Y ^._._._._.j.Y c.c./ = f i c s.5.E $.3.",
"4.q.i.d.q.  @ A H k [ Q.(._._._._._._./.c./ Z G s O < w.2.7.r.t.",
"y.3.d.y.r.1 A G U.T.F R z.Q./.!.!./.c.z.7 I.'.S.G s 3 w.f.f.f.f.",
"i.3.t.7.i.1 I.}.|.|.].X.> > > > > > ; ; K.}.].}.Y.C + w.l.f.f.f.",
"e.$.4.8.q.1 Z.Y.}.I.[.@X#XOX].S.I.{.@X#XOXU.D.D.V.s O 8 s.s.y.r.",
"$.$.$.$.6.+ C S S y e '.@X#X/.-.;.XX#XOXV.q y s 4 l 4 < r.7.3.3.",
"%.4.%.%.$.$ X.J.O.y e m.oX`.C.b.P.C.OXP.m.q @ : Q / 6 o v r.8.$.",
"t.i.q.%.3.; ' ] J.M h B m.C.C.v.P.C.B.n.x 5 V H j $ I.S.v r.$.3.",
"2.4.%.%.3.; ' ] ] 7 r V ! ! o.Z.Z.| ( l B w @ A F U.T.T.A.6.6.4.",
"r.7.3.8.i.> 6 ' ` 4 p m.B.C.N.1.a.V.C.M.B y @ A G U.}.].A.w.s.t.",
"f.f.q.3.r.Z z > > +.) d d A 1.p.<.a.S S C =.T Z G G ].].A.w.e.d.",
"l.l.d.e.3.N .X#X#XK.+.-.:.>.&.t t <.,.,.>.@.A G G G U.S.j ) k.l.",
"l.l.y.d.r.n |.#X#XY.a 7 ! ! 4 Z a X.J.G._ D p < < + N n 3.7.f.l.",
"k.e.u.i.r.4.A .XY.G t ; < < o   j ` ] ( 4 % b e.$.3.e.3.3.8.e.u.",
"e.8.4.%.4.3.8 N j 9 2.) ) e.6.%.7 ' ] ] b 5.t.8.%.3.e.7.4.$.%.3.",
"d.y.3.3.4.4.8.r.%.6.7.w.y.y.e.%.) 4.4.q.q.e.4.E $.$.3.7.7.6.4.q."
};
