/* XPM */
static char *result[] = {
/* columns rows colors chars-per-pixel */
"32 32 177 2 ",
"   c #080702",
".  c #1B1807",
"X  c #1E1711",
"o  c #370F07",
"O  c #231D13",
"+  c #27230D",
"@  c #2F2918",
"#  c #302E12",
"$  c #383518",
"%  c #3B3A28",
"&  c #740000",
"*  c #7E0000",
"=  c #720F0E",
"-  c #761B12",
";  c #5C2E00",
":  c #493736",
">  c #4A3936",
",  c #4D3B39",
"<  c #523F3D",
"1  c #77302E",
"2  c #53501C",
"3  c #68561F",
"4  c #78651F",
"5  c #4A4627",
"6  c #464528",
"7  c #534721",
"8  c #594E24",
"9  c #554B2B",
"0  c #5D4C28",
"q  c #5C552A",
"w  c #554934",
"e  c #54443A",
"r  c #574939",
"t  c #5B4C39",
"y  c #5B5336",
"u  c #614F2C",
"i  c #635D2B",
"p  c #695835",
"a  c #62543D",
"s  c #735E3C",
"d  c #6E6B2F",
"f  c #756C2A",
"g  c #6A6735",
"h  c #6D6534",
"j  c #6A623B",
"k  c #716B38",
"l  c #736E3C",
"z  c #7B6C3D",
"x  c #79753B",
"c  c #7E7B3A",
"v  c #25547F",
"b  c #4A4A4B",
"n  c #574542",
"m  c #565557",
"M  c #604F4B",
"N  c #665B45",
"B  c #745647",
"V  c #79514F",
"C  c #6D5452",
"Z  c #625D5E",
"A  c #705654",
"S  c #745A58",
"D  c #746643",
"F  c #7D7A4A",
"G  c #7C645E",
"H  c #7C7A5E",
"J  c #797462",
"K  c #76756C",
"L  c #787769",
"P  c #727273",
"I  c #797977",
"U  c #767678",
"Y  c #8E0707",
"T  c #AB0000",
"R  c #A90F0A",
"E  c #B80707",
"W  c #A21408",
"Q  c #A81A19",
"!  c #A1331C",
"~  c #AA2725",
"^  c #F42325",
"/  c #FD2526",
"(  c #F42C2C",
")  c #964F00",
"_  c #807B37",
"`  c #827E3A",
"'  c #A66D3D",
"]  c #865C47",
"[  c #8B5E4A",
"{  c #8A5250",
"}  c #966B4A",
"|  c #827E45",
" . c #86685E",
".. c #A57451",
"X. c #A87C57",
"o. c #A67D5D",
"O. c #8A7163",
"+. c #8C746F",
"@. c #93716C",
"#. c #8F7772",
"$. c #947C77",
"%. c #A57E61",
"&. c #A1716D",
"*. c #BF971A",
"=. c #8A8734",
"-. c #86823C",
";. c #89853E",
":. c #908C3A",
">. c #97913B",
",. c #CDA300",
"<. c #F3CC06",
"1. c #F3CE37",
"2. c #868243",
"3. c #8A8642",
"4. c #8D8944",
"5. c #86824B",
"6. c #8A864A",
"7. c #8E8B4B",
"8. c #918D46",
"9. c #918D4C",
"0. c #939046",
"q. c #95914D",
"w. c #8E8A53",
"e. c #8B8858",
"r. c #928E53",
"t. c #928F58",
"y. c #959254",
"u. c #989456",
"i. c #96925B",
"p. c #99955C",
"a. c #9B985E",
"s. c #AB835E",
"d. c #9A9662",
"f. c #9D9965",
"g. c #9E9B69",
"h. c #9D8176",
"j. c #9B847F",
"k. c #A09C6C",
"l. c #A1877D",
"z. c #A39F72",
"x. c #B3947D",
"c. c #CF8B6B",
"v. c #D28D6B",
"b. c #D7906E",
"n. c #DB9874",
"m. c #E6C15D",
"M. c #FFDB5D",
"N. c #2872A5",
"B. c #7F7F82",
"V. c #6489AD",
"C. c #2F87C1",
"Z. c #888385",
"A. c #888889",
"S. c #B1978D",
"D. c #B39C95",
"F. c #B89D92",
"G. c #B7A099",
"H. c #A0A0A2",
"J. c #B1B1B5",
"K. c #B7B7BB",
"L. c #BBBBBF",
"P. c #E5B78E",
"I. c #EDBC92",
"U. c #F0C296",
"Y. c #F4D7A6",
"T. c #F4D7A8",
"R. c #F6D9AA",
"E. c #FDDDAC",
"W. c #FFE1AF",
"Q. c #FBE0B5",
"!. c #CFCFD3",
"~. c #DEDAD5",
"^. c #D6D6DA",
"/. c #D9D9DD",
"(. c #DEDEE1",
"). c #F3F0EC",
"_. c #FCFCFD",
/* pixels */
"f.y.3.;.4.0.q.6.3.6.r.F y N M t w @ . . r t a x ` -.3.r.g.k.w.r.",
"i.7.-.3.3.3.;.3.j e , , , , C #.S e , : C +.n + i ` =.y.g.z.f.7.",
"i.f.d.i.q.q.q.-.+ : C +.#.D.M C +.#.S +.#.n , , , , e F i.i.t.4.",
"g.z.z.g.u.y.y.j , , : C A #.D.$.A D.$.#.S C D.$.S e X F 4.2.-.7.",
"g.z.z.f.p.i.e.r C #.#.#.#.#.#.#.#.#.D.$.#.D.$.S < , , 5 ` ` ` 7.",
"7.u.u.r.y.r.9.# : : C +.#.D.#.#.#.#.#.#.#.#.#.#.#.#.S < q _ _ ` ",
"x F 6.r.r.4.d > C #.#.#.D.$.S #.#.#.#.D.$.+.#.D.$.S #.S e h _ x ",
"8.q.u.u.9.4.w A #.#.S C #.S #.F.$.S D.G.$.1 +.@.D.$.n , , t ` :.",
"8.q.a.f.d.6.C +.n R * +.S Q @.F.$.S D.$.S Q V +.D.G #.n O x 4.;.",
"3.3.f.z.g.6 : , = ^ E V Q ^ &.#.#.~ @.#.~ ^ Y +.#.n C A a | y.y.",
"u.y.d.d.p.. : C - T * & T ^ { +.S ( &.S ( / E @.S 9 > A D 9.f.f.",
"u.4.r.e.5.w A A Q ^ { C +.S A A C Y.O.R.W.W.U. .P.s + j 3.q.d.p.",
"4.;.4.| -., C Q / / { #.#.S A A #.R.W.D 7 7 Y.U.I.s q -.4.9.q.q.",
"4.>.:.-.=.: > ( / / &.#.#.T.U.h.#.R.W.~.m !.Q.W.U.s g 3.3.4.8.4.",
":.>.;.=.f : ( / / E @.#.#.T.s.P.h.R.W.).Z Z.R.W.U.s l r.3.-.;.-.",
"4.4.0.0.2 & ^ / / E @.$.S P.o.R.l.R.W._.G ; Y.W.n.p F i.7.-.-.-.",
"0.0.u.y.$ ^ / / E V A +.S 9 c.I.h.Y.W.W.' ) Y.U.X.p e.i.6.` -.3.",
"4.q.a.f.- ^ / / E V A A A C c.b.I.E.W.W.W.W.U.n.p g i.w.3.7.y.u.",
"y.3.g.i.W * & ^ 1 A < C e C } v.b.I.I.U.n.b...0 8 -.4.r.g.g.g.g.",
"a.3.u.4.! T T * o N y N X : P U w 7 7 7 7 7 7 X d -.4.f.z.g.k.g.",
"q.-.4.4.2.W R z p.q.4.5 P J.^./._._._.(./.L.B.% c 4.4.p.d.p.i.y.",
"-.-.;.;.4.4.;.;.y.7.$ P J.^.L.^.L.^._._._.m.,.f c 4.7.9.i.7.4.3.",
";.4.3.;.-.;.6.p.d.L I J.^./.H.J.Z.b !._.V.1.4 6 3.7.u.u.a.y.4.;.",
"y.a.7.;.3.r.7.4.L I J.K.^._.I m S.F.a C.N.1.D 6 7.7.8.q.u.y.-.3.",
"4.6.3.;.3.q.4.J U U J.K.^._.A.j.%.%.o.u B j.b 6 t.y.4.8.u.7.6.4.",
"y.4.;.9.a.a.r.P U J.K.K.^._.J B o.o.o.q v m b $ w.7.y.4.9.g.d.y.",
"g.g.q.3.y.y.y.K U J.B.J.^._.Z.w B ] ] 8 m *.3 : 6.4.q.q.y.p.r.f.",
"z.z.g.9.3.7.q.l P U U J.^._.M.,.i 7 7 <.,.} [ k 6.7.4.9.3.7.g.z.",
"z.z.i.d.y.3.-.8.h P U J.K.^._.x.l.l.t 7 ] [ [ D 3.r.4.r.7.7.f.z.",
"k.r.p.a.q.0.3.4.4.4.H U I J.^.Z.o.u .   q i l 6.-.3.r.3.3.9.r.p.",
"9.r.4.;.3.3.4.9.4.2.2.| 9 K I t 8 8 ` q.a.u.u.4.2.3.9.7.4.-.;.3.",
"f.u.4.;.4.4.q.q.3.3.7.e.i.p.r.;.` 4.4.q.y.9.4.` -.-.;.7.r.6.4.9."
};
