/* XPM */
static char *result[] = {
/* columns rows colors chars-per-pixel */
"32 32 188 2 ",
"   c #111007",
".  c #2F2E17",
"X  c #3B3718",
"o  c #2D2D2C",
"O  c #3A2C29",
"+  c #37372E",
"@  c #383837",
"#  c #5C2E00",
"$  c #443D1D",
"%  c #42392A",
"&  c #463B2C",
"*  c #493D33",
"=  c #4D3B39",
"-  c #503F39",
";  c #733938",
":  c #4C4922",
">  c #534721",
",  c #534829",
"<  c #595226",
"1  c #5B542A",
"2  c #4A4535",
"3  c #504130",
"4  c #574937",
"5  c #5A5234",
"6  c #5D553D",
"7  c #614E3E",
"8  c #665939",
"9  c #705237",
"0  c #78573B",
"q  c #6B682E",
"w  c #696336",
"e  c #716A37",
"r  c #7D7939",
"t  c #284667",
"y  c #394E68",
"u  c #494949",
"i  c #5F4847",
"p  c #545455",
"a  c #595955",
"s  c #604A47",
"d  c #624B49",
"f  c #625442",
"g  c #725447",
"h  c #705654",
"j  c #715C58",
"k  c #69654A",
"l  c #726A48",
"z  c #7A7648",
"x  c #646155",
"c  c #6C6A53",
"v  c #68645E",
"b  c #78635E",
"n  c #797752",
"m  c #5F5F61",
"M  c #5C576A",
"N  c #545670",
"B  c #46627E",
"V  c #686768",
"C  c #7F6663",
"Z  c #756B6A",
"A  c #767678",
"S  c #777778",
"D  c #980000",
"F  c #963938",
"G  c #DC1A1A",
"H  c #FF2627",
"J  c #964F00",
"K  c #957717",
"L  c #8F403F",
"P  c #807B36",
"I  c #837E3A",
"U  c #82514D",
"Y  c #825B4A",
"T  c #8B5E4A",
"R  c #855A56",
"E  c #9D5A56",
"W  c #A1514D",
"Q  c #866946",
"!  c #967C41",
"~  c #896451",
"^  c #966F54",
"/  c #A06F4F",
"(  c #AD7657",
")  c #A77E5D",
"_  c #826A66",
"`  c #976E69",
"'  c #887267",
"]  c #8F7772",
"[  c #957E79",
"{  c #A87461",
"}  c #B37A63",
"|  c #C14544",
" . c #A18014",
".. c #BA9C17",
"X. c #86823C",
"o. c #89853E",
"O. c #928E37",
"+. c #96913A",
"@. c #AD9036",
"#. c #C79D00",
"$. c #D6AB00",
"%. c #E8BF00",
"&. c #FFD600",
"*. c #FFF200",
"=. c #CAC834",
"-. c #8A8642",
";. c #8D8944",
":. c #858148",
">. c #8A864B",
",. c #8E8B4B",
"<. c #918D45",
"1. c #918D4C",
"2. c #939046",
"3. c #95914C",
"4. c #8F8B53",
"5. c #928E53",
"6. c #918E5D",
"7. c #959254",
"8. c #989556",
"9. c #96925B",
"0. c #99955C",
"q. c #9B985E",
"w. c #BA805D",
"e. c #BBB941",
"r. c #9A9762",
"t. c #9D9A65",
"y. c #9E9B69",
"u. c #AF8C68",
"i. c #A09C6C",
"p. c #A39F72",
"a. c #B69175",
"s. c #B89478",
"d. c #BBA27A",
"f. c #C0BF53",
"g. c #C28963",
"h. c #C69A77",
"j. c #CFA27A",
"k. c #CFCD4B",
"l. c #226394",
"z. c #287DB4",
"x. c #416485",
"c. c #577DA0",
"v. c #2880B9",
"b. c #5080AA",
"n. c #288DCB",
"m. c #888686",
"M. c #988580",
"N. c #92928E",
"B. c #959492",
"V. c #97979B",
"C. c #99989A",
"Z. c #A28B85",
"A. c #A79089",
"S. c #AC938A",
"D. c #B7A099",
"F. c #9E9EA2",
"G. c #98A2B4",
"H. c #AAA9AB",
"J. c #A8AEBD",
"K. c #B8B6B7",
"L. c #B7B7BB",
"P. c #C5AA86",
"I. c #CEB589",
"U. c #CEB697",
"Y. c #E2A780",
"T. c #E4AB84",
"R. c #EEBE93",
"E. c #B4C99C",
"W. c #C6D48D",
"Q. c #D7C1A1",
"!. c #F8D2A3",
"~. c #F3D5A9",
"^. c #E4CDBB",
"/. c #FFE1AF",
"(. c #B4C1D1",
"). c #B4CAE4",
"_. c #C7C6C5",
"`. c #C7C7CB",
"'. c #CCCCCF",
"]. c #C6CFDB",
"[. c #D6D6D9",
"{. c #EDDDC8",
"}. c #F2DBCB",
"|. c #F6E4CE",
" X c #C6D6EA",
".X c #EBEBED",
"XX c #EFEFF1",
"oX c white",
/* pixels */
"t.7.-.o.;.2.7.;.o.:.z l g f O X 5 8 e l 8 q q q r I -.7.t.i.4.5.",
"9.,.X.-.-.o.-.-.P + O j C d = = ] Z._ s = = = = 3 8 o.9.y.p.r.,.",
"9.t.r.9.3.2.8 2 = = = i C ] Z [ Z._ d j ] _ d = O X ,.4.9.9.7.>.",
"y.p.p.y.8.7.% O i C _ d i y.A.] _ _ ] Z.A.] _ d = = 4 r ;.X.o.,.",
"y.i.i.t.q.l + - = s R ] ] ] Z.A.] ] Z.A._ d ] Z.] _ d 5 o.I P ,.",
",.8.0.9.>.3 s _ ] ] Z.D.A.] ] ] ] ] ] ] ] Z.A._ d = O X X.I P X.",
"r z :.1.4 i s s _ ] ] ] ] ] ] Z.A.] Z.A.] ] _ _ ] _ s % e I r r ",
"<.3.7.z 4 = i _ Z.A.] ] Z.A.Z.D.A.R ; [ A.] ] _ C ] _ s 3 I X.;.",
"<.1.q.i.5 O b Z.A.] ] Z.S._ [ S._ L D U ] R ` S._ d h _ d -.,.o.",
"-.-.i.i.7 s b ] _ C _ C ] U U ] E G G F _ R U Z.M.h s = * -.5.5.",
"0.5.q.n & j ] _ C ] R U C U W _ | H H G W R ; _ _ _ j % $ 7.t.i.",
"8.;.1.6 h _ h _ ] C s.h.P./.U.P./././.!.h.a.h._ _ h _ b 5 3.q.0.",
";.o.;.3 = 3 7 b _ s.h.> > d././././.P.> $ u.T.} { ( s d , 2.3.3.",
"<.+.+.1 & X 7 _ _ a.^.H.C.{././././.}.H.B.{.T.} { ( 3 2 8 ;.<.;.",
"O.+.o.o.O.< - 7 ~ h.{.K.v U././././.Q.Z H.|.j.~ d 3 O 5 :.X.o.o.",
";.;.<.<.+.< s h ~ h.}._.# s././././.I.# K.|.j.~ h d & l ,.I X.X.",
"2.2.8.3.3.4 i s 3 / j.j.J j././././.I.J g.T.( 3 i s 2 6.,.I X.-.",
";.3.q.t.1.. o m S b ( j.!./././././.~.!.T.( x S V +   4.-.4.7.8.",
"9.-.t.0.>.2 m A C.K.B.0 w.Y.R.R.R.R.T.g.Q m.L.F.A V 2 4.y.y.y.y.",
"q.-.8.1.l @ A L.'.`.'.B.> > : , > > > > m.'.[.[.`.B.2 t.i.y.y.y.",
",.X.;.2.: o m m.C.N.K..XoXXX'.F.C.'..XoXXXL.K.`.H.S 2 9.r.r.9.7.",
"X.X.o.r > 9 g u p u t G..XoX/.$.$.~.oXXXJ.t p V A a @ 3.9.1.;.-.",
"o.;.-.< $ 9 T 0 & o t l.(. Xn.E.W.n.).].l.t p M.S.' < 8.8.7.;.X.",
"7.q.,.k C.B.> x S m - M l.z.n.I.U.n.v.l.N f ] s.u.Q : 3.8.7.X.-.",
"-.>.:.N.L.L.F.S m @ y N U T ' b.m.] T Y M y e ) ) Q > ,.8.,.>.;.",
"7.;.z B.`.`.F.S m @ p B z.n.b.f.k.c.n.z.x.i 9 / ^ 7 < <.1.y.r.7.",
"y.t.n B.`.L.A A v K @.m V Z f.=.e.k.V p a !  .> > k c 1.8.q.5.t.",
"p.p.9.x V.F.A A A m ..&.*.*.=.u u @.&.%.#. .K.oXoX'.n 1.o.,.y.p.",
"p.p.9.9.n c X 1 : a Z ' S.S._ x v 9 Q T 0 x _.oXoX_.n 4.,.,.y.p.",
"y.5.r.q.3.3.o.2.-.w $ 9 ^ ) ^ 4   X 1 < $ p A (.'.x 5.;.-.;.5.q.",
"5.5.;.o.-.-.;.2.>.-.e Q ) ) ^ 9 o.I o.3.r.0.z k c e 1.1.>.X.X.-.",
"t.7.;.o.;.;.3.3.-.-.,.4.9.0.5.;.I ;.;.3.3.;.-.X.X.X.o.,.1.;.,.1."
};
