/* XPM */
static char *result[] = {
/* columns rows colors chars-per-pixel */
"32 32 183 2 ",
"   c #080702",
".  c #171605",
"X  c #281F1B",
"o  c #2C260F",
"O  c #2C2516",
"+  c #312F11",
"@  c #3A3618",
"#  c #393424",
"$  c #3D3C2D",
"%  c #3F3F3B",
"&  c #6A0000",
"*  c #760000",
"=  c #7A0A03",
"-  c #701710",
";  c #5C2E00",
":  c #4D341D",
">  c #742511",
",  c #463E28",
"<  c #463632",
"1  c #4A3B33",
"2  c #4D3B39",
"3  c #77352D",
"4  c #48411D",
"5  c #4A4723",
"6  c #534721",
"7  c #544B23",
"8  c #564C26",
"9  c #5B5727",
"0  c #434235",
"q  c #564836",
"w  c #5A4C3A",
"e  c #5E573B",
"r  c #634D2E",
"t  c #64562D",
"y  c #675B36",
"u  c #745D36",
"i  c #7C7129",
"p  c #686537",
"a  c #756D39",
"s  c #797536",
"d  c #7B773B",
"f  c #7D793C",
"g  c #564240",
"h  c #584947",
"j  c #5C5441",
"k  c #505051",
"l  c #614D4A",
"z  c #665842",
"x  c #69514F",
"c  c #705543",
"v  c #705654",
"b  c #705E5A",
"n  c #785F5C",
"m  c #6C6640",
"M  c #736949",
"N  c #7E7B45",
"B  c #4E5C6C",
"V  c #6B6A65",
"C  c #6D6C6D",
"Z  c #736D67",
"A  c #727164",
"S  c #737268",
"D  c #787773",
"F  c #767678",
"G  c #850000",
"H  c #9A0000",
"J  c #9E1918",
"K  c #A30000",
"L  c #AD0000",
"P  c #A22826",
"I  c #A73936",
"U  c #C30E0E",
"Y  c #E82627",
"T  c #F02122",
"R  c #FF2627",
"E  c #E93535",
"W  c #964F00",
"Q  c #937B1C",
"!  c #815F3D",
"~  c #877B39",
"^  c #827E3B",
"/  c #814C4A",
"(  c #9F4E4D",
")  c #835A45",
"_  c #8B5E4A",
"`  c #93694F",
"'  c #827D47",
"]  c #8B714E",
"[  c #936E58",
"{  c #827F51",
"}  c #A67D5C",
"|  c #AA7C59",
" . c #8A6A65",
".. c #846C69",
"X. c #966A65",
"o. c #89716C",
"O. c #9C7B65",
"+. c #8F7772",
"@. c #847D7E",
"#. c #B06B67",
"$. c #B58F0B",
"%. c #8A8734",
"&. c #86823C",
"*. c #89853E",
"=. c #908C3A",
"-. c #97913B",
";. c #C79D00",
":. c #F4CB00",
">. c #FFD600",
",. c #FFF400",
"<. c #FFFC00",
"1. c #E9C534",
"2. c #858243",
"3. c #8A8642",
"4. c #8D8944",
"5. c #85824C",
"6. c #8A864A",
"7. c #8E8B4B",
"8. c #918D46",
"9. c #918D4C",
"0. c #939046",
"q. c #95914C",
"w. c #8E8A53",
"e. c #898458",
"r. c #928E53",
"t. c #93805C",
"y. c #959254",
"u. c #989456",
"i. c #96925B",
"p. c #99955C",
"a. c #9B985E",
"s. c #B58357",
"d. c #9A9662",
"f. c #9D9A65",
"g. c #9E9B69",
"h. c #9F8671",
"j. c #99827C",
"k. c #B38762",
"l. c #A09C6C",
"z. c #B9936D",
"x. c #AA8B7A",
"c. c #A39F72",
"v. c #C78767",
"b. c #D7906E",
"n. c #DC9C78",
"m. c #E5C54E",
"M. c #35678F",
"N. c #2876AA",
"B. c #3081B8",
"V. c #2887C2",
"C. c #288DCB",
"Z. c #88888B",
"A. c #968782",
"S. c #939395",
"D. c #AA948D",
"F. c #B09783",
"G. c #AF9891",
"H. c #B7A099",
"J. c #869EBA",
"K. c #A2A2A4",
"L. c #ABABAF",
"P. c #B4B4B8",
"I. c #DAAE88",
"U. c #D5B485",
"Y. c #E1A780",
"T. c #E9B58C",
"R. c #EEBE93",
"E. c #EACA82",
"W. c #E9CB9C",
"Q. c #F2C79A",
"!. c #ECCEA3",
"~. c #FFE1AF",
"^. c #BFBFC3",
"/. c #C9C9CC",
"(. c #C3CBD9",
"). c #D2D2D6",
"_. c #D9D9DD",
"`. c #E2E2E5",
"'. c #F5EEE5",
"]. c #F1F1F2",
"[. c #FFF9F0",
"{. c #F7F7F8",
"}. c white",
/* pixels */
"f.y.3.*.4.0.q.6.3.6.r.{ e z z w w # . . q j y a ^ ^ 3.y.g.g.w.y.",
"i.7.&.3.3.3.3.*.p w 2 2 2 2 x o.n g 2 2 x o.l O 7 ^ *.u.g.c.d.7.",
"i.f.d.i.q.9.q.&.+ < x o.+.G.b x +.+.n o.+.l 2 2 2 2 q M i.i.y.6.",
"g.c.c.g.p.u.y.p < 2 2 x v o.G.j.n G.+.+.n v G.+.n g X y 3.*.*.7.",
"g.l.c.f.p.i.w.q x o.+.+.+.+.+.+.+.+.G.+.+.H.+. .g 2 2 , s ^ f 9.",
"7.u.p.r.u.r.9.@ < 2 x o.+.G.j.+.+.+.+.+.+.+.+.+.+.+.n g 8 s f &.",
"d N 6.y.r.4.a , x o.+.+.G.j.n o.+.+.+.G.+.X.+.G.j.n o.n h 9 f s ",
"4.q.u.y.9.4.q x o.+.n v o.n o.G.+.Z D.H.A./ X.+.G.j.l 2 2 q &.=.",
"8.q.a.f.f.6.x o.l J G  .n P X.G.j.n D.j.n P v o.G...o.l O p 4.*.",
"3.4.f.c.l.5 < 2 - Y U / P T #.+.+.I X.+.I T L  .+.l x v l f y.y.",
"p.y.d.f.d.o < x 3 K G * K T ( +.n E #.n E R U X.n q q x z 6.d.f.",
"y.4.w.e.5.0 x b P T ( v o.n v v v !.h.!.~.~.Q.O.I.] o y 3.q.d.a.",
"4.*.3.' &.q x P T R ( o.+.n v v o.!.~.O.6 6 W.!.Q.] 5 ^ 4.0.q.q.",
"=.-.=.&.%.< 2 Y R R #.+.+.!.Q.x.+.!.~.).C ^.~.~.Q.] 9 3.4.4.8.4.",
"8.-.*.%.i , J T R U X.+.+.!.z.Y.x.!.~.'.Z.@.!.~.Q.] y 9.2.&.*.&.",
"4.4.0.0.9 & K L T U X.o.n I.k.!.F.!.~.[.A.; W.~.Y.u M i.7.&.&.&.",
"0.8.q.q.@ H L L L / v o.n q v.T.x.W.~.~.| W W.Q.k.u { i.6.^ &.*.",
"4.9.a.l.> K L L L / v v v x v.b.T.~.~.~.~.~.Q.n.! t r.r.2.r.y.u.",
"u.3.l.u.> * * K 3 x g x q x ` b.b.T.R.R.n.b.| t 7 ^ 4.r.f.g.g.g.",
"a.3.y.~ ! * * * : e.m 2 C h C F j 6 6 6 6 6 6 O 9 &.4.g.l.l.l.g.",
"9.&.9.9.3.- = u r.r.4 V L.P.P.).{.}.}.`._.^.Z.1 a 4.4.p.d.d.i.y.",
"~ ~ &.*.6.4.*.*.e V F /._.L.P.)._._.{.}.}.E.;.Q s 8.7.9.i.9.4.*.",
"*.8.*.*.&.*.2.S F L.].`.S.F S.L.C B.(.{.J.m.Q , f 7.u.u.a.y.8.&.",
"u.a.9.*.2.7.Z F L.].`.^.Z.D.Z q M.V.C.C.N.m.~ 0 ' 4.9.0.u.y.&.3.",
"2.4.3.&.3.S F L.).{./.Z.O.s.y ) _ _ _ _ _ @.k $ { y.3.7.u.7.3.6.",
"y.4.*.9.p C F /.{.}.K.O.k._ r M.V.C.C.C.N.B k $ ' 7.y.8.q.g.d.u.",
"l.f.y.3.S F L.].}.`.S. .) r V C C C C C C 1.Q @ N 4.q.q.u.a.r.f.",
"c.c.f.9.A F L.].}./.Z.j 5 $.;.:.>.>.,.<.<.U.M : N 7.4.9.*.7.f.c.",
"c.c.i.f.5.V F L.].K.F % 4 ! _ r 6 7 c _ _ } } a ^ y.4.r.4.7.g.c.",
"g.r.p.a.q.f C F /.S.z a p 8 8 8 +   , c [ k.t.' &.2.r.2.3.7.r.p.",
"9.9.*.4.3.3.f A D p ^ ' 6.r.6.*.3.&.s t 7 7 9 d 3.3.q.7.4.&.*.3.",
"g.i.4.*.4.4.q.q.6.3.6.w.i.i.w.*.&.=.4.q.9.9.4.^ &.&.*.7.w.7.4.9."
};
