/* XPM */
static char *result[] = {
/* columns rows colors chars-per-pixel */
"32 32 163 2 ",
"   c #141405",
".  c #1E1D0E",
"X  c #25240E",
"o  c #29280F",
"O  c #2B211F",
"+  c #302E13",
"@  c #31261F",
"#  c #31301A",
"$  c #252524",
"%  c #342B22",
"&  c #3A3A39",
"*  c #760000",
"=  c #493F1C",
"-  c #41322F",
";  c #433331",
":  c #473933",
">  c #4B3D32",
",  c #4D3C39",
"<  c #503E39",
"1  c #742E2C",
"2  c #4E4521",
"3  c #4F472F",
"4  c #534B26",
"5  c #50472F",
"6  c #584F29",
"7  c #57552F",
"8  c #5B552A",
"9  c #4F4232",
"0  c #49453C",
"q  c #594E36",
"w  c #554738",
"e  c #5C4E3D",
"r  c #5F5538",
"t  c #5D5A3B",
"y  c #625E2C",
"u  c #665537",
"i  c #645F33",
"p  c #635D3D",
"a  c #69632E",
"s  c #6B653D",
"d  c #716E34",
"f  c #726D3F",
"g  c #797536",
"h  c #7A773B",
"j  c #474241",
"k  c #4D4C41",
"l  c #594442",
"z  c #5E4B44",
"x  c #5D5742",
"c  c #5F5849",
"v  c #565657",
"b  c #575758",
"n  c #5C5858",
"m  c #674F4D",
"M  c #724947",
"N  c #665945",
"B  c #67544D",
"V  c #68504D",
"C  c #7E5A41",
"Z  c #705654",
"A  c #696544",
"S  c #6D6B4D",
"D  c #716742",
"F  c #716D43",
"G  c #777446",
"H  c #7D7A46",
"J  c #767048",
"K  c #77635A",
"L  c #7A615E",
"P  c #7A7757",
"I  c #6B6A63",
"U  c #6B6A6B",
"Y  c #7D706D",
"T  c #777777",
"R  c #797273",
"E  c #7B7A73",
"W  c #767678",
"Q  c #7B7B7D",
"!  c #890000",
"~  c #991E1D",
"^  c #A00000",
"/  c #AD0000",
"(  c #AD1112",
")  c #9E2E2C",
"_  c #9E3634",
"`  c #C91112",
"'  c #E21F20",
"]  c #EB1F20",
"[  c #DE2D2D",
"{  c #FF2627",
"}  c #E23938",
"|  c #A5413E",
" . c #807B36",
".. c #827E3A",
"X. c #854947",
"o. c #AA4C4A",
"O. c #827E44",
"+. c #85665A",
"@. c #9B7458",
"#. c #A57E5C",
"$. c #886561",
"%. c #806A65",
"&. c #876F6A",
"*. c #857A67",
"=. c #8A726E",
"-. c #8F796F",
";. c #8F7772",
":. c #847B7B",
">. c #E64947",
",. c #86813C",
"<. c #88853E",
"1. c #908C3A",
"2. c #96913A",
"3. c #8A8642",
"4. c #8D8944",
"5. c #87844A",
"6. c #8A864A",
"7. c #8E8B4B",
"8. c #918D45",
"9. c #918D4B",
"0. c #939046",
"q. c #95914D",
"w. c #8E8A52",
"e. c #928E52",
"r. c #959254",
"t. c #999556",
"y. c #96925B",
"u. c #99965D",
"i. c #9B985E",
"p. c #9A9762",
"a. c #9D9A65",
"s. c #9E9B69",
"d. c #9C857F",
"f. c #A09C6C",
"g. c #A39F72",
"h. c #878785",
"j. c #8D8D8F",
"k. c #8D8D90",
"l. c #969698",
"z. c #9B9B9E",
"x. c #A18C86",
"c. c #A69089",
"v. c #AD968F",
"b. c #B7A099",
"n. c #A2A0A2",
"m. c #A7A7AB",
"M. c #A8A8AB",
"N. c #B7B7BB",
"B. c #C99292",
"V. c #F58082",
"C. c #FF9696",
"Z. c #CF9EA2",
"A. c #E5BBBF",
"S. c #C2C2C6",
"D. c #CFCFD2",
"F. c #D0D0D4",
"G. c #D9D9DD",
"H. c #FFDCDC",
"J. c #E0E0DE",
"K. c #E5E5E8",
"L. c #E8E8E8",
"P. c #F5F5F6",
"I. c white",
/* pixels */
"a.r.3.<.4.0.q.6.3.O.s p N N m >     - q e f .... ...3.e.f.f.9.e.",
"y.7.,.3.3.3.h p < , , , l L ;.x.< < w L %.- o g  ...3.r.f.f.a.6.",
"y.a.p.y.q.9.y % , l L ;.Y w L x.c.=.v.&.m , , , < e 4.9.y.u.y.3.",
"s.g.g.s.t.F < , l L ;.d.v.;.&.L ;.;.&.V m Z &.m ; . y.9.3.3...7.",
"s.f.f.a.J m K ;.;.%.l L d.v.;.;.;.;.x.b.v.&.m < < ; p 8.3.....9.",
"7.t.u.y.s % , l L ;.;.;.;.;.;.&.Z Z ;.;.d.v.;.;.&.m : d .... ...",
"h H 6.5.5 z Z ;.&.L ;.;.d.v.;.;.;.&.Z ;.;.;.;.&.m l m , .... .h ",
"8.q.t.p l L ;.=.=.v.;.d.b.v.;.d.b.;.x.v.;.;.d.v.&.m , < f ....4.",
"8.9.i.B L %.l =.v.&.L d.v.;.;.d.b.c.L d.v.;.;.d.v.%.; + 8.9.4.<.",
"3.3.a.e , l Z L ;.&.L ;.;.&.L d.v.&.L d.c.L &.L ;.&.V 9 <.8.e.r.",
"u.q.p.t O V &.L &.Z L ;.&.Z Z L ;.&.L ;.&.L ;.&.Z ;.&.; y t.f.a.",
"t.4.w.A B &.Z Z M 1 L &.M ! / | ;.$.1 L &.L ;.$.1 Z L &.q q.p.t.",
"4.<.4.r l V l M * 1 Z M ! ^ ( >.&.M * 1 M 1 L $.1 V , , > 8.9.q.",
"1.2.1.8 , , l Z M * 1 X.` ' ( } X.^ ! ^ * * 1 Z Z V ; @ q 4.8.4.",
"4.2.<.a 3 @ l Z Z Z M ! / / ^ ! ^ ! / / ^ 1 Z Z Z V : w.3.,.<.,.",
"4.4.0.0.2.8 l Z m l Z Z X.` ] ) X.` ] ) Z Z m l Z V w y.6.,.,.<.",
"q.9.q.r.q.i l V , l Z X.` { } Z o.{ ] ) Z Z m , l V x y.6...,.3.",
"8.9.i.p.e.7 O 0 j l Z o.{ { } Z o.{ ] ) Z Z m , j ; # w.3.w.r.t.",
"r.3.a.u.r.t $ b W U l o.{ ] ~ _ { { } m l m v W U & X w.a.s.s.s.",
"u.4.t.7.u.S n l.m.j.Z.{ { [ R Z.{ { [ R n.R N.m.U &   a.g.s.f.s.",
"9.,.8.8.9.p b Q h.z.A.{ { V.G.A.{ { V.F.N.S.G.S.U 0 = F u.p.y.e.",
",...,.,.4.y 5 b j.S.A.{ { C.I.H.{ { V.G.F.S.K.P.S.:.-.4 y.7.4.3.",
",.8.4.<...a u +.z.K.H.{ V.K.I.H.] / B.I.P.G.K.I.P.S.&.C f r.8.,.",
"r.i.9.<.3.5.4 c z.K.I.P.K.I.I.I.I.I.I.I.I.I.P.K.I.P.S.I 6 r.,.3.",
"3.7.<.,.3.9.d k z.G.L.P.K.I.I.I.I.I.I.I.I.I.I.I.I.I.L.n.2 7.4.6.",
"r.4.4.9.i.i.6.c j.S.K.P.K.I.I.I.I.I.I.I.I.I.I.I.I.I.P.S.I s.p.r.",
"f.a.e.3.r.r.e.S j.S.G.G.G.K.I.I.I.I.I.I.I.P.K.P.K.I.I.K.I i.r.a.",
"g.g.a.9.3.8.q.S j.N.S.F.S.K.I.P.K.I.I.I.P.F.D.P.G.K.I.J.P 6.a.g.",
"g.g.y.p.r.<.,.H h.N.S.F.S.K.I.P.G.K.I.P.G.F.N.S.F.M.W P 4.7.s.f.",
"f.w.i.p.q.q.<.4.G T j.M.k.S.K.P.G.G.G.G.F.M.k.m.W I F 3.3.9.r.u.",
"9.r.3.1.4.<.4.9.3...D *.#.#.@.K j.N.N.m.T T E P h 3.q.7.4.,.<.3.",
"a.r.3.<.4.8.9.r.3.5.w.w.y.y.e.<.<.<.4.q.q.8.4.,.,.,.<.7.w.6.4.9."
};
