/* XPM */
static char *result[] = {
/* columns rows colors chars-per-pixel */
"32 32 156 2 ",
"   c #171605",
".  c #181707",
"X  c #1B1A0C",
"o  c #29280F",
"O  c #2D231E",
"+  c #302A19",
"@  c #272725",
"#  c #352C24",
"$  c #302F2A",
"%  c #3D3423",
"&  c #3A3A3A",
"*  c #760000",
"=  c #42322F",
"-  c #433430",
";  c #473933",
":  c #4B3C32",
">  c #4D3C39",
",  c #503E39",
"<  c #742E2C",
"1  c #743130",
"2  c #4F4520",
"3  c #4F4926",
"4  c #4C442C",
"5  c #575329",
"6  c #5B542A",
"7  c #4E4134",
"8  c #4A463C",
"9  c #4C4C3C",
"0  c #564A3A",
"q  c #5C4E3D",
"w  c #5F5538",
"e  c #5E5C3C",
"r  c #625C2A",
"t  c #625F30",
"y  c #645D3D",
"u  c #685838",
"i  c #67622E",
"p  c #63613A",
"a  c #6B653D",
"s  c #6D693B",
"d  c #716E34",
"f  c #726C3C",
"g  c #777435",
"h  c #7A773B",
"j  c #7B783D",
"k  c #474241",
"l  c #594442",
"z  c #5E4B44",
"x  c #5F5848",
"c  c #565657",
"v  c #5B5252",
"b  c #674F4D",
"n  c #724947",
"m  c #665945",
"M  c #605D44",
"N  c #67544D",
"B  c #68504D",
"V  c #705654",
"C  c #696743",
"Z  c #716B45",
"A  c #797543",
"S  c #767048",
"D  c #7A615E",
"F  c #75735C",
"G  c #6A6A64",
"H  c #6B6A6B",
"J  c #776F6D",
"K  c #7C7B64",
"L  c #7C746D",
"P  c #777776",
"I  c #797572",
"U  c #7A7A77",
"Y  c #767678",
"T  c #890000",
"R  c #A00000",
"E  c #AD0000",
"W  c #AD1112",
"Q  c #9E2E2C",
"!  c #9E3634",
"~  c #C91112",
"^  c #E21F20",
"/  c #EB1F20",
"(  c #DE2D2D",
")  c #FF2627",
"_  c #E23938",
"`  c #A5413E",
"'  c #807B36",
"]  c #827E39",
"[  c #854947",
"{  c #AA4C4A",
"}  c #827F4A",
"|  c #876550",
" . c #85665A",
".. c #886561",
"X. c #806A65",
"o. c #876F6A",
"O. c #8A726E",
"+. c #8F7772",
"@. c #E64947",
"#. c #ED6C6F",
"$. c #86813C",
"%. c #89853E",
"&. c #908C3A",
"*. c #96913A",
"=. c #858142",
"-. c #8A8642",
";. c #8D8944",
":. c #84824C",
">. c #8A864A",
",. c #8E8B4B",
"<. c #918D45",
"1. c #918D4C",
"2. c #939046",
"3. c #95914C",
"4. c #8F8B53",
"5. c #928E53",
"6. c #959254",
"7. c #989556",
"8. c #96925B",
"9. c #99955C",
"0. c #9B985E",
"q. c #9A8065",
"w. c #9A9762",
"e. c #9D9A65",
"r. c #9E9B69",
"t. c #95827E",
"y. c #9C857F",
"u. c #A09C6C",
"i. c #A39F72",
"p. c #818183",
"a. c #8D8D8F",
"s. c #8D8D90",
"d. c #9B9B9E",
"f. c #A18C86",
"g. c #A69089",
"h. c #AD968F",
"j. c #A6A599",
"k. c #B7A099",
"l. c #A1A0A3",
"z. c #A7A7AB",
"x. c #A9A9AC",
"c. c #B7B7BB",
"v. c #B8B8BB",
"b. c #F58082",
"n. c #FF9696",
"m. c #E5BBBF",
"M. c #C2C2C6",
"N. c #CFCFD2",
"B. c #D0D0D4",
"V. c #D9D9DD",
"C. c #EBDBDB",
"Z. c #FFDCDC",
"A. c #E5E5E8",
"S. c #EDEDEE",
"D. c #F5F5F6",
"F. c white",
/* pixels */
"e.6.-.%.;.2.3.>.-.} a y m m q :     % q w a ] ' ' ] &.5.u.u.1.5.",
"8.,.$.-.-.-.h y , > > > l D y.f., > b V J - o ' ] ] } 7.u.u.u.,.",
"8.e.w.8.3.1.r # > l D +.J 0 V y.g.O.h.o.b > > > , q ,.1.7.9.4.-.",
"r.i.i.r.9.Z 7 > l D +.y.h.+.O...+.+.o.b b V o.b = X 8.,.;.} ] 1.",
"r.u.u.e.S z D +.+.X.l D y.h.+.+.+.+.f.k.h.o.n , , - u ,.] ] ] 3.",
",.7.9.8.s # > l D +.+.+.+.+.+.o.V V +.+.y.h.+.+.o.b ; d ] ] ' ] ",
"j A >.>.4 l D +.o.D +.+.y.h.+.+.+.O.J +.+.+.+.o.b l b > } ] ' ' ",
"<.3.7.y l D +.o.O.h.+.y.k.h.+.y.h.+.+.h.+.+.y.h.o.b > , ' ] ] ;.",
"<.3.0.N D X.l O.h.o.D f.h.+.+.y.k.g.D y.h.+.+.y.h.X.- + <.<.<.%.",
"-.;.e.0 > l V D +.o.D O.+.o.D y.h.o.D y.g.D o.D +.o.B : %.<.5.7.",
"9.6.e.e O N o.D o.V D +.o.V V D +.o.D +.o.D +.o.V +.o.- d 6.e.u.",
"7.;.5.p N o.V V n < D o.n T E ` +...< D o.D +...1 V J  .a 3.0.9.",
";.%.;.u l B l n * < V n T R W @.o.n * < n < D ..< b > > f <.1.3.",
"&.*.&.6 > > l V n * < [ ~ ^ W _ [ R T R * * < V V b = 4 %.<.<.<.",
";.*.%.i : + l V V V n T E E R T R T E E R < V V V b - Z -.%.%.%.",
"<.;.<.<.*.6 l V b l V V [ ~ / Q [ ~ / Q V V b l V b : 8.>.] ' %.",
"3.<.6.6.3.f l B > l V V [ ~ ) _ V { ) / Q V b > l b > w.>.j $.;.",
";.1.0.e.3.s # > k l V V [ ~ ) _ V { ) ) _ V b k k - . 5.-.,.6.7.",
"6.-.e.0.6.S $ c Y H l b l { ) ) ( 1 ~ ) _ B v Y H & . 5.e.r.r.r.",
"9.;.6.,.0.e @ c d.N.l.I l.! ) ) #.l.! ) ) #.x.s.x.Y 9 e.i.u.u.e.",
"1.$.<.<.-.3 x a.M.V.B.c.M.m.) ) b.V.m.) ) b.M.U p.H 9 8.9.w.8.6.",
"$.$.$.$.r V t.d.A.D.B.M.V.m.) ) n.F.Z.) ) b.B.x.H 8 6 1.9.,.;.-.",
"%.<.;.g u  .d.A.F.D.V.A.F.C.E ~ n.F.D.m.) n.D.M.L [ f 7.9.6.;.$.",
"6.9.,.t m d.A.F.D.A.F.F.F.F.F.F.F.F.F.D.A.F.D.M.G 2 %.2.9.6.$.-.",
"-.;.-.5 K B.F.F.F.F.F.F.F.F.F.F.F.F.F.D.A.D.V.M.G 5 -.<.9.,.;.>.",
"6.;.%.C d.A.F.F.F.F.F.F.F.F.F.F.F.F.F.D.A.D.N.z.G A 6.<.1.r.w.6.",
"r.r.5.C x.F.F.D.A.D.A.F.F.F.F.F.F.F.D.V.V.V.N.z.G ;.1.3.7.0.5.e.",
"i.i.e.:.j.F.D.V.A.S.M.A.F.F.F.D.A.F.D.N.M.N.c.z.G ,.;.1.-.;.r.i.",
"i.i.8.w.:.I a.M.B.c.M.V.A.F.D.V.A.F.D.N.M.N.c.z.F 5.;.1.;.,.r.i.",
"r.5.0.0.6.=.M P a.x.s.M.V.V.V.V.A.D.B.z.a.z.Y K ] >.5.>.-.,.5.9.",
"1.1.-.;.-.-.;.-.S K I Y a.c.v.x.J | q.q.q.K :.<.%.-.1.1.,.$.%.-.",
"e.8.;.%.;.;.3.3.-.>.>.4.8.8.5.-.] &.&.3.3.1.;.] $.$.%.,.,.>.;.1."
};
