/* XPM */
static char *result[] = {
/* columns rows colors chars-per-pixel */
"32 32 184 2 ",
"   c #020200",
".  c #1B1907",
"X  c #2C0000",
"o  c #241F0D",
"O  c #231C16",
"+  c #3B391E",
"@  c #3B3A24",
"#  c #3F3F34",
"$  c #6F0000",
"%  c #760000",
"&  c #7F0000",
"*  c #741716",
"=  c #5C2E00",
"-  c #77210F",
";  c #413E25",
":  c #4A3936",
">  c #4D3B39",
",  c #533F3D",
"<  c #7A3230",
"1  c #5E5A1D",
"2  c #68461E",
"3  c #6C581E",
"4  c #7D691E",
"5  c #484427",
"6  c #534721",
"7  c #594A26",
"8  c #554A2C",
"9  c #5C5527",
"0  c #4F4930",
"q  c #54433B",
"w  c #57493C",
"e  c #595435",
"r  c #614E29",
"t  c #63512E",
"y  c #615D2D",
"u  c #675735",
"i  c #655B3C",
"p  c #725734",
"a  c #68642E",
"s  c #77682C",
"d  c #797528",
"f  c #6D6134",
"g  c #6D633C",
"h  c #6E6B3B",
"j  c #74673C",
"k  c #7A7639",
"l  c #7A773B",
"z  c #7E7939",
"x  c #27537E",
"c  c gray29",
"v  c #594644",
"b  c #5F5140",
"n  c #545353",
"m  c #58585D",
"M  c #6B5F44",
"N  c #655948",
"B  c #735646",
"V  c #7A504E",
"C  c #6C5351",
"Z  c #705654",
"A  c #755B59",
"S  c #6B6441",
"D  c #776240",
"F  c #77684C",
"G  c #7B7746",
"H  c #78765F",
"J  c #6C696A",
"K  c #7C6460",
"L  c #71716E",
"P  c #7B7969",
"I  c #747375",
"U  c #767678",
"Y  c #920809",
"T  c #9F1709",
"R  c #A70000",
"E  c #AD0000",
"W  c #AA0802",
"Q  c #BA0809",
"!  c #A41110",
"~  c #A71D1C",
"^  c #A92B29",
"/  c #A03822",
"(  c #EF2425",
")  c #F52324",
"_  c #FF2627",
"`  c #F1292A",
"'  c #F22F30",
"]  c #964F00",
"[  c #807B36",
"{  c #827E39",
"}  c #855B46",
"|  c #8B5E4A",
" . c #8E5250",
".. c #976B49",
"X. c #817E43",
"o. c #827F4B",
"O. c #896B5F",
"+. c #A97142",
"@. c #A97B56",
"#. c #A67D5D",
"$. c #826D65",
"%. c #8E7566",
"&. c #8C736F",
"*. c #93706B",
"=. c #8F7772",
"-. c #957D78",
";. c #A47E62",
":. c #A3706C",
">. c #BD961D",
",. c #8A8734",
"<. c #86823C",
"1. c #89853E",
"2. c #928E37",
"3. c #96913A",
"4. c #CEA400",
"5. c #F1CA06",
"6. c #F0CC3C",
"7. c #868242",
"8. c #8A8642",
"9. c #8D8944",
"0. c #84814C",
"q. c #89844C",
"w. c #8E8A4B",
"e. c #918D46",
"r. c #918D4B",
"t. c #939046",
"y. c #95914D",
"u. c #878454",
"i. c #8E8B53",
"p. c #928E52",
"a. c #928E5C",
"s. c #959254",
"d. c #989456",
"f. c #95925B",
"g. c #99965C",
"h. c #9B985E",
"j. c #9B9761",
"k. c #9D9A65",
"l. c #9E9B69",
"z. c #9A847F",
"x. c #AE8660",
"c. c #A19C6D",
"v. c #A08377",
"b. c #A2897D",
"n. c #A39F72",
"m. c #CD8A6A",
"M. c #D18C6A",
"N. c #D7906E",
"B. c #DB9976",
"V. c #E7C265",
"C. c #FFDC65",
"Z. c #2873A6",
"A. c #3086BF",
"S. c #6B8DAF",
"D. c #828183",
"F. c #8A8284",
"G. c #8B8B8C",
"H. c #9F8781",
"J. c #AF968C",
"K. c #B69782",
"L. c #B29B94",
"P. c #B89D92",
"I. c #B7A099",
"U. c #A2A2A4",
"Y. c #B1B1B4",
"T. c #B7B7BB",
"R. c #E4B58D",
"E. c #EBB98F",
"W. c #EEBE93",
"Q. c #F0C397",
"!. c #F3D5A6",
"~. c #F4D7A9",
"^. c #F9DBAC",
"/. c #FFE1AF",
"(. c #FBE0B6",
"). c #BCBCC0",
"_. c #CDCDD1",
"`. c #DEDAD4",
"'. c #D5D5D9",
"]. c #D9D9DD",
"[. c #DEDEE2",
"{. c #F4F0EB",
"}. c #FFFBF7",
"|. c #FCFCFC",
/* pixels */
"k.s.8.1.9.t.y.8.l M M S ; ; 0 i i j h 9 y G l { { <.8.p.c.c.w.p.",
"f.w.<.8.8.8.7.a O v *.C > > , A &.C > > > > > q z <.1.f.c.c.k.w.",
"f.k.j.f.X.q > > > > v =.=.A =.&.C N L.=.&.C : . [ 8.w.r.f.f.a.9.",
"l.n.n.l.G O q A -.L.Z A =.-.L.A -.L.=.Z C > : : h s.s.r.9.<.1.w.",
"l.l.l.j.0 > > , A -.L.=.z.L.=.=.=.=.=.=.=.=.&.C q j.a.e.7.{ { r.",
"w.f.a.i v A =.=.=.=.=.=.&.=.=.=.=.-.L.=.&.C : : @ p.w.1.<.{ [ { ",
"l G g q A =.A -.L.=.=.-.L.=.=.=.&.A -.L.=.=.=.C : h G { 1.{ [ k ",
"e.y.b > > v -.L.=.O.< -.I.L.A -.L.&.A &.Z A =.&.C w s.r.e.<.{ 9.",
"t.y.G O v &.K L.&.V ~ A -.L.A -.L.*.~ A &.& ! v &.C q.9.9.t.w.1.",
"8.9.j.N Z C v =.*.Y ) ^ =.*.^ &.=.:.) ~ V Q ) * > : + 8.1.t.s.s.",
"h.y.a.F C > 8 A *.Q _ ' A :.' A &. .) R % & R * C : . 9.9.d.k.k.",
"d.9.i.H S o D R.O.Q././.!.%.~.Z Z Z A &.Z  .) ~ Z C q e.t.y.j.h.",
"8.1.9.0.z 1 D Q.Q.!.6 6 F /.~.&.Z Z A =.&. ._ ) ~ C : 1.9.t.t.d.",
"2.3.2.<.,.d D Q./.(._.m `./.~.=.v.Q.~.=.=.:._ _ ` : : 1.1.9.9.9.",
"9.3.1.,.2.d j Q./.~.F.J {./.!.v.E.x.~.=.=.*.Q _ _ ` : G 7.<.1.<.",
"9.9.t.t.3.d p B./.!.= $.}./.!.b.!.@.R.A =.&.Q _ _ ) $ e w.<.<.<.",
"t.t.y.d.t.7.u @.Q.!.] +././.~.v.W.m.8 A =.C Z Q _ _ ( + q.{ <.8.",
"9.y.h.k.s.s.G p B.Q././././.^.E.N.m.Z Z Z Z V Q _ _ ` - 8.w.s.d.",
"f.8.k.f.s.l.c.N r @.N.B.W.W.E.N.M...C , Z q Z < ) % & T k.l.l.l.",
"h.8.s.w.h.l.n.u.o 6 6 6 6 6 6 e U I : g G 5 w X & E E / n.l.c.l.",
"y.<.9.9.y.d.d.0.# D.T.].[.|.|.|.].'.Y.J h 9.8.z 2 W T u.j.j.f.s.",
"<.<.1.1.9.9.8.z s 4.V.|.|.|.'.).'.).'.Y.L a 8.p.1.w.9.y.f.w.9.8.",
"1.9.8.1.<.7.9.u.5 4 6.S.|._.c D.T.U.].'.Y.L G j.r.w.s.d.h.y.e.<.",
"s.h.w.1.8.s.w.X.; D 6.Z.A.M P.J.n D.|.'.T.Y.I f.d.e.e.y.d.d.<.8.",
"9.w.8.1.8.y.9.l ; c F.} t #.#.;.z.G.}.'.T.Y.I P g.s.8.e.d.r.9.q.",
"s.9.1.w.h.h.y.X.; c m x t #.#.#.B P |.'.T.T.Y.L d.w.s.e.r.l.j.s.",
"l.k.s.9.s.s.s.q.; 3 >.n 7 | | B 0 G.|.'.Y.D.Y.P d.9.r.y.s.j.p.k.",
"n.n.k.w.8.t.y.u.f | ..4.5.6 6 3 4.C.|.'.Y.U L i.s.w.9.r.8.9.l.n.",
"n.n.f.k.s.1.<.9.j | | } 6 u H.b.K.|.'.T.Y.L 0.s.9.s.w.p.w.9.l.n.",
"l.s.h.h.d.t.1.9.7.u 9 6   . t ;.G.'.Y.U P f.h.p.<.7.p.8.8.r.p.g.",
"w.r.8.1.8.9.9.r.8.8.7.X.o.u.y 9 e P H X.g.d.d.9.1.7.r.w.w.<.1.8.",
"k.f.9.1.9.9.r.y.9.8.w.u.j.f.i.7.1.9.8.y.s.r.9.<.<.<.8.w.w.8.w.r."
};
