/* XPM */
static char *result[] = {
/* columns rows colors chars-per-pixel */
"32 32 107 2 ",
"   c gray6",
".  c #100F0F",
"X  c #141414",
"o  c #1B1917",
"O  c #1C1C1B",
"+  c #241D16",
"@  c #2A1F17",
"#  c #221E1B",
"$  c #2E2217",
"%  c #24211E",
"&  c #2C231C",
"*  c #31261B",
"=  c #33291E",
"-  c #3C2C1F",
";  c #1F2021",
":  c #242424",
">  c #2B2723",
",  c #2D2923",
"<  c #262729",
"1  c #24282D",
"2  c #2C2B2B",
"3  c #352B23",
"4  c #3A2E24",
"5  c #342E29",
"6  c #382F28",
"7  c #3D3125",
"8  c #33302D",
"9  c #3B322A",
"0  c #343433",
"q  c #3C3633",
"w  c #3C3935",
"e  c #3D3C39",
"r  c #412F21",
"t  c #443426",
"y  c #42352A",
"u  c #45392D",
"i  c #4D392A",
"p  c #523D2B",
"a  c #433A32",
"s  c #443F3A",
"d  c #4E4B21",
"f  c #5E5B2F",
"g  c #42423F",
"h  c #484739",
"j  c #554232",
"k  c #696731",
"l  c #6B6837",
"z  c #76723E",
"x  c #7A773B",
"c  c #434341",
"v  c #494946",
"b  c #4C4C4A",
"n  c #514E4B",
"m  c #51514D",
"M  c #5C5B49",
"N  c #555452",
"B  c #585854",
"V  c #575858",
"C  c #5B5B5B",
"Z  c #6F6C45",
"A  c #7A7744",
"S  c #7D7B44",
"D  c #7D7A4C",
"F  c #62625E",
"G  c #75745D",
"H  c #5F6060",
"J  c #656565",
"K  c #696964",
"L  c #676868",
"P  c #6C6C6C",
"I  c #73736E",
"U  c #747474",
"Y  c #7B7A73",
"T  c #7B7B7B",
"R  c #807B36",
"E  c #827E39",
"W  c #837F4A",
"Q  c #7F807D",
"!  c #86823C",
"~  c #89853E",
"^  c #908C3A",
"/  c #97913B",
"(  c #878445",
")  c #8A8642",
"_  c #8D8944",
"`  c #8A864A",
"'  c #8E8B4C",
"]  c #918D46",
"[  c #918D4C",
"{  c #939046",
"}  c #95914C",
"|  c #898656",
" . c #8F8C50",
".. c #928E53",
"X. c #959254",
"o. c #989456",
"O. c #96925A",
"+. c #99965C",
"@. c #9B985E",
"#. c #9A9662",
"$. c #9D9A65",
"%. c #9E9B69",
"&. c #A09C6C",
"*. c #A39F72",
"=. c #818181",
"-. c gray55",
";. c #929292",
/* pixels */
"$.X.) ~ _ { } ` ` ` ..#.#.O. .E E _ _ ) W [ ~ E E E ) ..&.&. ...",
"O.' ! ) ) ) ) ) E ` #.D M I =.=.=.=.U f k | _ E E ! ) X.&.&.&.` ",
"O.$.#.O.} { [ ! R f : T -.U =.T T =.U -.T 1 d W E ) ` [ O.O...) ",
"%.*.*.%.+.X.X.A h U T -.T U U U U T U T ;.W I e z X.O.[ _ ) E [ ",
"%.&.*.$.+.O.D n ;.=.U U U U T =.=.T U U U U =.;.b Z O.' ~ E E [ ",
"' O.O...O.W # T U P P P U H C L L C J P P P P U W o A ( E E E E ",
"x S ` X.[ : T Y U T P b 0 O # @ > & < a b P T U =.T 3 E _ E R x ",
"] } o.o.l 0 -.U U L 0 . . . @ 3 3 3 6 > y 8 L T U ;.q ) ] E E ) ",
"] } +.%.I T T U T 1 . X X X # > 3 > 2 4 s r 5 U U T T G ` [ _ ~ ",
") _ $.*.| =.T T b X X X X X ; : = > < t a 9 y m T T =.U ) ] X.X.",
"@.X.#.#.Y Q U T 0   X X X X ; : = 3 < 2 9 i a s T U T U ] X.$.$.",
"X._  .| B T U C ; X X X X X % > & 3 4 6 1 0 u 9 V T T V ] } #.+.",
"_ ~ ) ( 0 -.T L X X X X X X ; : : , 4 7 2 8 j y L T ;.0 ] { } } ",
"_ / ^ ! 0 T U P X X X X X X # @ * 3 6 t y < q a P P T 0 ~ _ ] _ ",
"] / ~ ~ 8 =.U P X X X X X X # > * * 5 5 i y a 0 P U Q 8 ( ! ~ ~ ",
"] ^ { ] 0 T T V X X X X X X # @ & = 3 , y y j 9 V T T 0 ' ! ! ! ",
"{ { X.X.U =.=.L X X X X X X + % * & 4 - a 9 p y L Q =.U ` E E ) ",
"_ } @.$.J P U P X X X X X X o + & : > 4 y 6 j 9 P U P H `  .X.o.",
"O.) $.o.L T =.U X X X X X X % $ & # : 3 y t a 6 U Q T L $.%.&.&.",
"@.) O.` C T U C X X X X X X O + @ & : : 5 t i 4 C T T C *.&.&.$.",
"[ ! _ _ 0 -.U J X X X X X X o + # & & , : 2 p 4 J U -.0 +.#.O...",
"~ ! ~ ~ 0 U L L o . X X X X % + + > & * < < i y L L U 0 O.[ _ ) ",
"~ _ ) ) 2 T I J X X X X X X o % + & > * 3 < 5 4 L P T 2 +.X.] ! ",
"X.@.' ~ g U I N X X X X X X o o + @ > % 4 * 6 < V U U c o.X.! ) ",
") ' ) ~ U T T J X X X X X o o O + @ * & 6 3 r 7 J T T U +.' ) ( ",
"X._ ~ [ C L I L o X X o o O O ; < # @ * 4 , r 4 L P L C ..&.#.o.",
"%.$.X.) P U T P X X o o O ; < 2 2 0 & @ 3 = 9 3 U Q U L o.+...$.",
"*.*.$.[ V U P C X o o ; ; 2 0 0 e c g , * = 3 3 V P U C ~ ` &.*.",
"*.*.O.$.0 T P H X O ; < 2 0 e h b m B B 3 $ - = H P T 0 ] ' %.*.",
"%...#.+.2 L J J O O < 2 w g v m B C F K F 9 * 4 J J L 2 ) ] ..+.",
"[ [ ) ) 2 P P L ; : 2 w c b B C F K K I U P 9 @ L P P 2 ` ~ E ` ",
"$.O.) ) < P L m : 2 0 h b m C F K P I I U T I b N L P > [ ` _ [ "
};
