/* XPM */
static char *result[] = {
/* columns rows colors chars-per-pixel */
"32 32 119 2 ",
"   c #1D1C1A",
".  c #24241D",
"X  c #262624",
"o  c #272A2E",
"O  c #2C2B2B",
"+  c #342C25",
"@  c #3C2E22",
"#  c #342E2A",
"$  c #392F29",
"%  c #3F3126",
"&  c #35302C",
"*  c #3B322C",
"=  c #2B2D31",
"-  c #302F30",
";  c #2E3135",
":  c #343333",
">  c #3B3633",
",  c #3E3A36",
"<  c #31353A",
"1  c #37383B",
"2  c #3C3A3B",
"3  c #402E1F",
"4  c #412F22",
"5  c #443224",
"6  c #483526",
"7  c #45362A",
"8  c #493729",
"9  c #44382E",
"0  c #4D3A2B",
"q  c #533D2C",
"w  c #443932",
"e  c #4B3E34",
"r  c #443E3B",
"t  c #503E30",
"y  c #4E4B21",
"u  c #56402F",
"i  c #5E5B2F",
"p  c #4E4136",
"a  c #4B423A",
"s  c #554132",
"d  c #5B4533",
"f  c #5E4835",
"g  c #51463C",
"h  c #584638",
"j  c #5F4B3A",
"k  c #624A35",
"l  c #634D3A",
"z  c #67513E",
"x  c #6B533E",
"c  c #696731",
"v  c #6B6837",
"b  c #7F7B36",
"n  c #76723E",
"m  c #7A773B",
"M  c #353A40",
"N  c #3E3F41",
"B  c #3E4146",
"V  c #414143",
"C  c #4F4944",
"Z  c #444448",
"A  c #4C4C4D",
"S  c #574A41",
"D  c #5C4D41",
"F  c #50504B",
"G  c #5C5B49",
"H  c #545453",
"J  c #575859",
"K  c #5B5B5B",
"L  c #615142",
"P  c #6F6C45",
"I  c #7A7744",
"U  c #7D7B44",
"Y  c #74714E",
"T  c #7D7A4C",
"R  c #75745D",
"E  c #5F5F60",
"W  c #5F6060",
"Q  c #646565",
"!  c #666768",
"~  c #676868",
"^  c #6B6C6C",
"/  c #73736D",
"(  c #7A7968",
")  c #6F6F70",
"_  c #6F7070",
"`  c #747474",
"'  c #7C7B72",
"]  c #7B7B7B",
"[  c #827E39",
"{  c #837F4A",
"}  c #86823C",
"|  c #89853E",
" . c #908C3A",
".. c #97913B",
"X. c #878445",
"o. c #8A8642",
"O. c #8D8944",
"+. c #8A864A",
"@. c #8E8B4C",
"#. c #918D46",
"$. c #918D4C",
"%. c #939046",
"&. c #95914C",
"*. c #898656",
"=. c #8F8C50",
"-. c #928E53",
";. c #959254",
":. c #989456",
">. c #96925A",
",. c #99965C",
"<. c #9B985E",
"1. c #9A9662",
"2. c #9D9A65",
"3. c #9E9B69",
"4. c #A09C6C",
"5. c #A39F72",
"6. c #818181",
"7. c gray55",
"8. c #929292",
/* pixels */
"2.;.o.| O.%.&.+.o.+.=.1.1.>.=.[ | o.| o.| %.o.b [ } o.;.3.3.=.;.",
">.@.} o.o.o.o.o.} +.,.T G ` 6.6.6.6./ j c O.O.} b } | :.3.5.2.@.",
">.2.1.>.&.%.$.} b i X ] 7.` 6.] ] 6.] 7.] . y } b o.+.@.>.>.;.+.",
"3.5.5.3.,.;.;.I a ` ] 7.] ` ` ` ` ] ` ] 7.6._ , n >.>.@.o.X.} @.",
"3.4.4.3.,.>.T F 8.6.` _ ` ` ' 6.6.] ` ` _ ` 6.8.A P >.$.| [ [ @.",
"@.>.,.-.>.{   ] ` ^ ` ^ _ W K ! ! K W / _ _ _ ` ]   U | } [ b } ",
"m U +.;.$.. ] ] ` ] ^ A N * * * * & * 2 A ^ ] / ' ] . | | [ b m ",
"#.&.:.;.v > 7.` ` ! > + 9 7 p s s p u % # > Q ] ` 7.1 X.#.} } | ",
"$.&.<.2.R ] ] ` ` : * 9 e 0 f z x q k k t 7 > ` ` ] ] Y O.%.@.| ",
"o.o.2.5.' 6.] 6.F + 0 e k d k x z q l z k s % F ] ] 6.( o.O.;.;.",
",.;.1.1.' 6.` ] N * a h D p g z L t S l L g e V ] _ ] ' #.;.2.2.",
";.O.-.*.H 6.` J O w a l j p g l D e g l D t a * K ] 6.H %.&.1.<.",
"O.| O.X.: 7.] ~ * s k z x k k z L f k l x k k * ~ ] 8.: O.%.&.&.",
"O... .} > ] _ _ * h k z z f f z j 1 g l 2 2 f 9 ^ _ ] : | O.#.O.",
"#...| | & 6.` ^ * h k k x f k j < < 1 1 < 1 1 : ^ ` 6.= X.} | | ",
" .O.%.#.: ] ` K & h l z z k z k g = g k 2 : f > J ' ] : @.} } } ",
"#.$.;.-.` 6.{ ~ - t k f l d k k z d f k l d k 7 ! ] 6.` +.[ [ o.",
"#.$.<.1.Q ) 6.) - Z Z w l d k k k d k h l d f > ) ` ) E X.@.>.:.",
";.o.3.1.! ] 6.` O B M $ D e C q S e C t S a a $ ` 6.] ~ 2.2.4.4.",
"<.o.1.{ E ] ` K : A A w k t d d f q d f k q q $ E ` ] K 5.2.4.4.",
"$.} $.#.1 7.) Q : N V > k q k d f t k d f q k $ Q ` 7.: ,.1.>.-.",
"} [ | } - ` ~ ~ - e e t k q q k k q d f k t t 9 ~ ~ ` : >.$.O.o.",
"| O.o.| O ] ) ! * q d q k q d s e = e t : - t $ Q ) ] O :.;.#.} ",
";.<.$.| r ] ) J $ 0 d d k q d h ; = : - = - - = H ` ] V :.;.} o.",
"X.O.o.} ` ] ] Q # 6 q d t 6 q q w o 9 t - O 6 $ Q ] ] ` :.@.X.o.",
";.@.| $.K ^ ` ~ $ @ 6 t q 4 6 q q 4 8 q q 4 4 $ ~ ) ~ E $.4.<.>.",
"4.4.&.o.! ` ] ^ # 6 8 0 q 5 8 0 0 5 8 0 q 6 4 $ ) ] ` ~ :.1.-.2.",
"4.5.2.$.J ` / J - $ , 6 e $ , 8 e * , 8 e & > + K ) ` K o.o.4.5.",
"5.5.>.2.: ] ^ E + @ 5 8 0 4 4 8 0 4 4 8 0 4 4 + E ) ] - #.+.4.5.",
"3.-.,.<.O ~ Q Q # 4 6 0 0 4 6 0 0 4 5 0 0 4 4 @ Q Q ~ O o.#.-.,.",
"@.-.o.O.O ^ ^ ^ + 4 5 5 6 3 4 8 5 4 6 5 4 3 @ + ~ ) ^ O #.} } o.",
"2.:.X.o.X ^ ! F O $ 5 @ @ 4 4 @ @ @ 5 @ @ @ @ O H Q ^ X -.o.+.$."
};
