/* XPM */
static char *result[] = {
/* columns rows colors chars-per-pixel */
"32 32 48 1 ",
"  c #7F7B36",
". c #7A773B",
"X c #7D7A3D",
"o c #7D7A43",
"O c #817C36",
"+ c #827E3A",
"@ c #817D43",
"# c #827E49",
"$ c #8A8637",
"% c #86813C",
"& c #89853E",
"* c #8C883A",
"= c #928D35",
"- c #918D3B",
"; c #979332",
": c #999533",
"> c #96913A",
", c #9A963B",
"< c #9C993C",
"1 c #868243",
"2 c #8A8642",
"3 c #8D8A44",
"4 c #86824B",
"5 c #8A864A",
"6 c #8E8A4B",
"7 c #918D46",
"8 c #918D4B",
"9 c #939046",
"0 c #95914D",
"q c #99954F",
"w c #9E9A4C",
"e c #8A8753",
"r c #8E8B53",
"t c #928E52",
"y c #948F58",
"u c #959253",
"i c #989456",
"p c #9E9B54",
"a c #96925A",
"s c #99965C",
"d c #9B985E",
"f c #A09C5C",
"g c #9A9661",
"h c #9D9A65",
"j c #9F9B69",
"k c #A19D65",
"l c #A19D6D",
"z c #A39F72",
/* pixels */
"hu&&390525tgga8+%&2&&83OO%2ujjeu",
"a612222&%5agse+7327&773OO%%alzg6",
"ahga000%X1ya52%%7&&7772%O268aau5",
"jzzjsitoX3t87%27878&722.1aa622%8",
"jlzhsae878uu632tdds3832#ygy82OO8",
"6iaytt8233732%2jzlg5t2+ryy5%++O+",
".o5u83%+*&3&%+azzzy38%+264o+2+O.",
"30ii83&&&3&&+%jzzh3+%X726yu87+%2",
"88djh03&O+%  +gjhu%OX&300dt2383&",
"23hlhu7-$*2%O16ee1%&%%&u083233uu",
"duhgg8-,,,is618eooX%&2a672X37uhj",
"u3re4*:wpwkjd35#o#%23i6%3+u890gs",
"3&2#%;<fkkkhi2&%X2&28i3222323900",
"3>=%$:<hzlhit2%+32+@Xo13X2o3&373",
"7>&$=::pjhd86i6%&&2&%&311o5r2%&%",
"7*97>=>,q838hlju32&%%36255aa6%%%",
"90u009ii8837hkh033%%%ddr6rga5+%2",
"38dh0uhkkdi38u7%%&09id02%5ar1rui",
"u2hsulzzzzh023%333isi632%&3uhjjj",
"d2i6djzlzjs777&&22usi962%%3hzjlj",
"8%760isss033t0u2&&3u03&%3*3adgau",
"%%*%332%0666dd036i63&&2t263ta632",
"%322%&2sh66us8i8ui02&tdd06iisu7%",
"ud8%1u636ta88uis03026tddu690iu%2",
"26&%386&3at63378athdu9gddu28a635",
"u328dd06tagt333tjlhdi0u6s6q3thdu",
"jju2uitasghs82%udhu03977u300udth",
"zzh6270iuahi33&759tu03iuu33826jz",
"zzigu&%726u63%&%20di20iu2t3636jz",
"krgd0023632X+%% %263dsst%5t526ts",
"r02332385&1o4r5&2%&0ddi7&2t73%%5",
"hi2&3308316rgat&%220063%%+266530"
};
