/* XPM */
static char *result[] = {
/* columns rows colors chars-per-pixel */
"32 32 149 2 ",
"   c #040404",
".  c #0C0D0A",
"X  c #1C1C0C",
"o  c #141C10",
"O  c #1C1D14",
"+  c #1D1E18",
"@  c #1F211A",
"#  c #212114",
"$  c #2A2811",
"%  c #23241A",
"&  c #26281C",
"*  c #2B2C1C",
"=  c #312F1A",
"-  c #35341F",
";  c #272921",
":  c #2A2B23",
">  c #2E3127",
",  c #2F3329",
"<  c #34372D",
"1  c #33382A",
"2  c #343430",
"3  c #3B3E32",
"4  c #3B3C39",
"5  c #3D4135",
"6  c #3B4E37",
"7  c #46462D",
"8  c #5D5A2E",
"9  c #434536",
"0  c #434639",
"q  c #44493B",
"w  c #494D3E",
"e  c #555533",
"r  c #525A34",
"t  c #5A5935",
"y  c #51533E",
"u  c #5E5E3C",
"i  c #6A6730",
"p  c #6E6B36",
"a  c #63613F",
"s  c #6A683B",
"d  c #7F7B36",
"f  c #7A773B",
"g  c #7E7B3E",
"h  c #4A4F41",
"j  c #4E5343",
"k  c #4E5248",
"l  c #515646",
"z  c #525846",
"x  c #595C46",
"c  c #53554B",
"v  c #555A49",
"b  c #595E4D",
"n  c #5C614F",
"m  c #5E6351",
"M  c #646241",
"N  c #6C6C43",
"B  c #67674C",
"V  c #6B6B4B",
"C  c #726F42",
"Z  c #797747",
"A  c #7D7A46",
"S  c #71754F",
"D  c #7C7B4D",
"F  c #616653",
"G  c #646956",
"H  c #686950",
"J  c #61615A",
"K  c #666C59",
"L  c #696F5B",
"P  c #6D7155",
"I  c #6C725D",
"U  c #747350",
"Y  c #74765C",
"T  c #7B7959",
"R  c #6F6F63",
"E  c #6E7461",
"W  c #6F7268",
"Q  c #717663",
"!  c #757B65",
"~  c #7B7C64",
"^  c #767B69",
"/  c #797E6B",
"(  c #807B36",
")  c #827E39",
"_  c #837F45",
"`  c #7C826C",
"'  c #7D8371",
"]  c #7E9A74",
"[  c #85813C",
"{  c #89853F",
"}  c #8A8642",
"|  c #8D8944",
" . c #8A864A",
".. c #8E8A4B",
"X. c #918D46",
"o. c #918D4C",
"O. c #95914C",
"+. c #848153",
"@. c #898651",
"#. c #8F8B53",
"$. c #86855C",
"%. c #928F53",
"&. c #81935C",
"*. c #959254",
"=. c #999556",
"-. c #96925A",
";. c #99965D",
":. c #9B985E",
">. c #A09D56",
",. c #8B8961",
"<. c #928E6D",
"1. c #969365",
"2. c #9B9762",
"3. c #9C9965",
"4. c #9F9B69",
"5. c #818672",
"6. c #848A75",
"7. c #868C79",
"8. c #898E7C",
"9. c #8D9376",
"0. c #8C917E",
"q. c #A09C6C",
"w. c #A39F72",
"e. c #8B8F82",
"r. c #8E9382",
"t. c #919685",
"y. c #949887",
"u. c #9C9A82",
"i. c #969A8A",
"p. c #999E8E",
"a. c #979A90",
"s. c #9B9F90",
"d. c #9BA08F",
"f. c #9DA293",
"g. c #BDBF89",
"h. c #A1A595",
"j. c #A4A79B",
"k. c #A6AA9C",
"l. c #A8AC9F",
"z. c #AAADA1",
"x. c #AEB1A6",
"c. c #AFB2A8",
"v. c #B2B5AB",
"b. c #B6B9AF",
"n. c #BBBCAC",
"m. c #B7BAB1",
"M. c #B9BCB3",
"N. c #BEC1B9",
"B. c #C0C2BB",
/* pixels */
"3.*.} { | X.*.| }  .-.1.,.Y F z l x N [ { o.} ( ( [ } *.3.q.#.*.",
"-...[ } } { { } )  .<.e.I G ^ r.6.K v l t | | [ d [ { -.4.w.2...",
"-.3.1.=.O.O.O.[ ) $ b / 6.p.c.M.k.7.L z l 7 i } ( } ..o.-.-.%.} ",
"4.w.w.q.=.*.%.A X / / 7.z.m.M.v.h.0.^ b j j j c C -.=...} } } ..",
"4.q.q.3.;.-.@.7.e.b K r.f.s.r.5.^ / E b v v z j b B -...} ( ) o.",
"..=.;.%.-.%.9./ G v K ' r.6./ Q m x v m ! ` I m w 6 r { ) ) ) ) ",
"f A  .*.%.n.p.h.r.' I ` 8.r.f.p./ n l L 5.6.! G x > : t { ) d f ",
"X.O.=.*.~ h.M.B.m.h.0.~ 7.p.p.y.6.K b E 6.` L n z < . = ..) [ | ",
"X.O.;.u.a.t.v.v.z.p.` I p.x.z.z.y.E m / ` I L m z q ;      .| { ",
"} } 1.W b I 6.5.! ^ L Q j.b.m.z.t.E b I I G L m l j 0 3 ; = %.*.",
":.*.H F G ! ` Q L E K ^ y.x.z.f.6.L n G G K K b l v l l 5 & 2.3.",
"=.o.m.r.h.y.5.r.p.0.Q ^ 5.t.t.5.Q m v v n m v b F b F m l , a :.",
"| $.h.l.l.t.r.k.z.r.E I ! / ` L m b l j l l v K G n m x l 3 - O.",
"| V i.v.x.y.f.c.f.^ m b m K L m v v l j l b L I G m L I m q * | ",
"X.n.d.v.d.0.l.z.8.Q 8.r.Q n F F G F v j l l b F m m I L F j > [ ",
">.g.p.h.0.y.l.h.' r.m.N.z.y.h.k.f.8.I b G I K m z n G G n z 1 [ ",
"U / 6.5.' i.i.7.6.z.M.b.k.f.x.b.v.y.E I ' 9.6.! m z n m v v 3 } ",
"H 5.` I ' p.r.! / f.b.z.d.l.b.M.v.f.Q / 8.0.6.` m j l j v b 0 =.",
"Y ! b m 0.f.' K ^ 6.0.6.' f.b.v.s.5.F K ` ` ! m v v v v v v q q.",
"P G w K 0.t.E K ` ' ! G K 0.f.j.8.L m F G L G v v n G n z l y 4.",
"T R l K ` ^ K ^ y.j.0.G m ` r.0.E n b G Q Q m v l m G v q , u *.",
"[ [ &.] G m ^ f.c.v.r.G E ` ` Q L F m G ! ! G m n v b v 5 % } { ",
"{ |  .R j l 7.x.v.h.6.G r.p.7.` G b b G Q Y m m m v v z 5 e X.[ ",
"=.;...u 4 j r.f.d.0.^ I d.l.i.r./ L n b I I G n b z l l 9 ..[ } ",
"} } { [ O l 6.t.6.' ! ' z.M.x.i.6.! F z F L n z j h 3 : s ..| | ",
"*...} o.$./ ` 5.! Q G r.x.b.l.t.5.! n j n F m j 5 < @ 8 o.q.2.=.",
"q.3.O.} *.S ~ I m m R i.x.x.f.7.! I n j v v w > O - _ O.*.2.#.3.",
"w.w.4.o.} ..P K v z W r.f.p.r.! I I b j j l 3 @ s ..| o.} | 4.w.",
"w.w.=.3.*.{ [ h.c 4 k ^ 6.7.` K F G n w h 9 % O g #.| %.| ..4.w.",
"4.#.;.:.O.O.{ X._ e % 5 K / Q b v l 5 & : +     o Z *.} } o.%.;.",
"o.*.} | } } | X. .) L f.' v b j h 3 %       # p { } o...| [ [ } ",
"3.*.| { | | O.O.} } ..#.+.M 7 * + 2 c J D g | [ [ [ { ..#...| o."
};
