/* XPM */
static char *result[] = {
/* columns rows colors chars-per-pixel */
"32 32 94 2 ",
"   c #020202",
".  c #080807",
"X  c #0C0C0B",
"o  c #0E120D",
"O  c #10100C",
"+  c #131411",
"@  c #171814",
"#  c #191B15",
"$  c #1E1F1C",
"%  c #152015",
"&  c #1F221B",
"*  c #22241D",
"=  c #272720",
"-  c #272A22",
";  c #282A23",
":  c #2C2C2B",
">  c #2D3026",
",  c #2E3229",
"<  c #32362B",
"1  c #34392E",
"2  c #343432",
"3  c #3B3E32",
"4  c #3D4035",
"5  c #3A4D36",
"6  c #3F4238",
"7  c #414437",
"8  c #4C4C32",
"9  c #42463A",
"0  c #464B3C",
"q  c #494C3E",
"w  c #434343",
"e  c #4A4E41",
"r  c #4F4F4F",
"t  c #4E5343",
"y  c #515646",
"u  c #535846",
"i  c #53554A",
"p  c #555A49",
"a  c #595E4D",
"s  c #5B5D53",
"d  c #5B5B5B",
"f  c #5B604F",
"g  c #5E6351",
"h  c #72724A",
"j  c #616653",
"k  c #646956",
"l  c #666C59",
"z  c #696E5A",
"x  c #6C725D",
"c  c #6B6D62",
"v  c #686868",
"b  c #6E7360",
"n  c #6F776B",
"m  c #717663",
"M  c #747A65",
"N  c #727668",
"B  c #777C69",
"V  c #797E6A",
"C  c #767676",
"Z  c #797E71",
"A  c #7C826C",
"S  c #7F8471",
"D  c #7C9371",
"F  c #80856F",
"G  c #818672",
"H  c #848A75",
"J  c #868C79",
"K  c #898E7C",
"L  c #8C927E",
"P  c #8D9381",
"I  c #919685",
"U  c #939887",
"Y  c #929589",
"T  c #959A8A",
"R  c #999E8E",
"E  c #969F96",
"W  c #9B9F90",
"Q  c #9DA293",
"!  c #B3B689",
"~  c #A1A596",
"^  c #A3A699",
"/  c #A5A99C",
"(  c #A8AC9F",
")  c #AAAEA2",
"_  c #AEB1A6",
"`  c #B0B4A6",
"'  c #B2B5AB",
"]  c #B6B9AF",
"[  c #B8BBAF",
"{  c #B7B9B0",
"}  c #B9BCB3",
"|  c #BEC1B8",
" . c #C0C2BB",
".. c None",
/* pixels */
"..........................b g p y u u ..........................",
"......................K x k B P G l p y & ......................",
"..................  9 B J R _ } / J z y t * ....................",
"................  s V H ( ] } ' Q L M a t t y i ................",
"..............v S a z P Q W P G B A b a p u u y s = ............",
"............L B k p k G I G V m f u p a M A x f q 5 % ..........",
"..........[ W Q I A x V J I Q W V a y z G H M k u & & ..........",
"........g Q }  .] / J B H R W U H k a m H A l f u > X X ........",
"......C Y I ` ' ) R V x U _ _ / I x f V A x k g u 0 #     ......",
"......c a z H G M B l b ~ ] { ) I x f x x k z g t t 6 4 * . ....",
"....6 g l M A m z x k M U ) ) Q H z f j k l l a i i u u 4 + ....",
"....) P Q U F L R L m B G I I G x j p p f g p a g f j f t * ....",
"....~ ( ( I I / ) P x x M A A z g a y y y y p k j f g p u < + ..",
"..e U ' ) I Q _ W M g s f l z f p p y t y a z x k j z x g 7 @ ..",
"..` T ' W L / ) J m J P m g j j l j i t y y a j g f l x g t $ ..",
"..! R ~ L U ( ~ V P { } ( I ~ / W J x a k x z f u f l j f u ; ..",
"w V G G G U T J H / } ] / ~ _ ] ` U x x A K H M f u a f p p < ..",
"9 G A x A R P M V Q ' ) W / ] } ' Q x B K K H A f u y u p a 3 ..",
"i B a s J Q V k B H P H A Q ] ' R F j k A A M f u p a u p a 3 ..",
"e j e k K I x l B S M j z J Q / J z g j l z j f u f k f t t < ..",
"..c t k S V z B U / J l j B L J x a f j M b g p i f j p 0 , ....",
"......D k f M T ' ` J j b A A M z j f k M M j f f a a p 3 + ....",
"......c q u H _ ' ~ G l J R J B j s a j M x j g g p p p 1 X ....",
"......2 2 0 J Q W L B x T ( W P V z a f x x j f a u y y * ......",
"........O 0 G P H A B S / } _ U H B g u j l g u t q 4 * ........",
"..........V G G M b l J _ ] ( U A M f t f j g e 4 < @ ..........",
"..........q M x k g x Y _ _ Q H A x a t p p q - @ + ............",
"............e k p u b P Q R L M x x a t t y 1 o ................",
"..............Y t 3 e N G H A l f z a q t 4 #   ................",
"..................8 # 1 k A M f u y 3 * ; @ . . o ..............",
"....................r Q n p f q q 4 #     .   ..................",
"............................* # @ : r d h ......................"
};
