/* XPM */
static char *result[] = {
/* columns rows colors chars-per-pixel */
"32 32 106 2 ",
"   c #7F7B36",
".  c #7A773B",
"X  c #7D7A3D",
"o  c #7D7A43",
"O  c #817C36",
"+  c #827E3A",
"@  c #827E42",
"#  c #837F48",
"$  c #8A8637",
"%  c #8B8834",
"&  c #86813C",
"*  c #89853E",
"=  c #8D883C",
"-  c #918C3C",
";  c #979332",
":  c #999533",
">  c #96913A",
",  c #9A953B",
"<  c #9C993C",
"1  c #A6982E",
"2  c #AC9E2F",
"3  c #BEAB27",
"4  c #B6A430",
"5  c #BDAB38",
"6  c #C8AE1B",
"7  c #D1B71E",
"8  c #CAB225",
"9  c #D6BB24",
"0  c #C5B43E",
"q  c #C8B73D",
"w  c #DFC114",
"e  c #DAC61F",
"r  c #E4CA0D",
"t  c #EEC808",
"y  c #EBDD0C",
"u  c #F6D205",
"i  c #FBD703",
"p  c #F6D905",
"a  c #FDDD03",
"s  c #E3C517",
"d  c #E2CB1E",
"f  c #EBDE13",
"g  c #F4E406",
"h  c #FFE202",
"j  c #F6EA05",
"k  c #FEEC02",
"l  c #F3EA0C",
"z  c #F4F006",
"x  c #FEF402",
"c  c #FDFB02",
"v  c #FEF60D",
"b  c #FBEF17",
"n  c #FEF413",
"m  c #FDFD15",
"M  c #FDF61E",
"N  c #D5C622",
"B  c #D8C42D",
"V  c #CCC231",
"C  c #FEF328",
"Z  c #FDFD28",
"A  c #FEF63A",
"S  c #FEFA3B",
"D  c #868243",
"F  c #8A8642",
"G  c #8D8944",
"H  c #86824B",
"J  c #8A864A",
"K  c #8E8A4B",
"L  c #918D46",
"P  c #918D4B",
"I  c #939046",
"U  c #9C9344",
"Y  c #95914D",
"T  c #99954F",
"R  c #9E9A4C",
"E  c #898656",
"W  c #8E8B53",
"Q  c #928E52",
"!  c #948F58",
"~  c #959254",
"^  c #999555",
"/  c #9E9B54",
"(  c #96925A",
")  c #99965C",
"_  c #9B985E",
"`  c #A29A45",
"'  c #A89F47",
"]  c #A69D4F",
"[  c #A09C5C",
"{  c #B1A544",
"}  c #A8A05B",
"|  c #9A9661",
" . c #9D9964",
".. c #9F9B69",
"X. c #A19D65",
"o. c #A19D6D",
"O. c #A39F72",
"+. c #A6A16F",
"@. c #C0B252",
"#. c #FDFE62",
"$. c #FDFE89",
"%. c #FDFDB3",
"&. c #FDFEC2",
"*. c #FDFDCC",
"=. c #FDFCE6",
"-. c #FDFCF0",
/* pixels */
" .~ * * G I Y J F J Q | | ( P + & F = F * P = O + & F ~ ..o.W Q ",
"( K D F F F * F & J | ( ) W & F F F L * L L G +   & D ~ o.o.| K ",
"(  .| ( Y Y Y & O D ! ! J F & F L * = G I L * D O F K P ( ( ~ J ",
"..O.O...) ^ Q o o G Q P G & F L P L P F P F * . H ~ ( K G D & P ",
"..o.o. .) ( E P L Y Y ~ L G F P ) ) ) J P G F # E | ! P & + O P ",
"K ) ) ! Q Q P * F L P G F & J o.O.o.| K ~ * + P ( ! K & & O + + ",
". o H ~ P G & & * * G F & + ! O.O.o.( F L & @ J P H o + = + O . ",
"G Y ^ ^ P G * * F = * * + & ..@.+...G + & X L & P ! ~ K L + & F ",
"L P _ X. .Y G * & O +   O + | l 0 ~ & O X & L P P ) Q F G L G F ",
"F G  .O. .~ L - % $ F D + & U c g D & * & & F ~ Y Y G F G G ~ ~ ",
") ~ | | ) P - , > , / ( K D 8 c k - X & * G ~ P G F X L G ^  . .",
"~ G Q E H = , R / R X...) , u c k 6 & F G ~ K & G @ ~ L I Y | _ ",
"G * G # & ; < [ +. . . .] w a Z k u 1 F P ^ G * F F G F G L Y Y ",
"G > = $ % ; <  .+.o.} 5 s h k #.x a t 3 % D H F X D @ F G G L G ",
"L > * * ; : : / q B d p h k C %.#.x a a r 8 2 = D X J W D & * & ",
"G G I - > = ; , g x x v n Z $.-.&.Z C x c x y 3 H K ) ( K & O * ",
"Y L ^ Y Y Y T ^ d j j b M A %.=.*.S A x k j f N K W | ( J + & * ",
"G P _  .Y ^  ... ._ ' 7 p k c %.S k h u 9 ] Y F * J ( W F W ~ ^ ",
"~ F ..( ~ ..O.O.+.O. .Y 2 u k S k h u { ) P L G * * K Q ........",
"_ F ^ K _ ..o.o.+...) L G 4 h Z k i { ) ~ L P D O & G  .O.......",
"P & G L Y ^ ) ) ) Y G G ^ Y w m x 7 G ~ Y G F & G G F _ | | ( ~ ",
"& & * * F G F * Y K K J ) _ ` c k T K G * & F P & K K P ( K G F ",
"* G F * & * F )  .K K ^ ) K ~ z e ~ Y = F Q ) ) Y K ^ ^ _ T G & ",
"~ _ P * G W K K K P ) K P ~ ^ V ` G ~ F P P |  .~ G L I ) ~ & F ",
"F J * & F Q G * G ~ ~ K G G L Y ^ Q | _ ~ I _ _ _ ~ F P ( P F J ",
"~ G F P _ _ Y K W ) | Q G G G W ..o...) ^ Y Q P _ K T G P ..| ~ ",
"....P F ~ ~ ~ ) ) | | _ P F * ^ |  .~ Y G I G P ~ G Y Y ^ | Q ..",
"O.O...P * P Y ~ ~ ) | ^ K F * G F I Q ^ Y G ^ ^ ~ G G P F G ..O.",
"O.O.(  .~ * & L F W ~ K G & * & G ~ _ ~ F Y ^ Q G Q J P G K ..O.",
"..W _ _ T Y * G K G F X & & +   & F P F _ ^ _ W & D Q J F K W ( ",
"P P F G G F G P F F D # H Q J * F & F Y _ _ ) G F F P P G & * G ",
"..( F * G G Y P F D K E ( ( Q * & F F Y Y P G & & + F K P J G P "
};
